<svg viewBox="0 0 961.33 492.4" xmlns="http://www.w3.org/2000/svg"><path d="m646.87 298 15.13 3.27 7.62 2.85 14.15 5.62c5.37 4.59 11.91 7.38 16.4 13.25 4.4 7.49 8 15.45 6.91 24.51l-6.08 21.88-2.9 13.5-2.1 13.27-2.11 18.36-1.57 13.31c14.25 13.4 25.44 28.76 30.28 47.25.18 1.62.09 3.22.81 4.61l13-3.28 23.07-5.12 33.88-6.65a7.16 7.16 0 0 1 3.24-.62l26.84-5.18 27.64-5.39 36.06-7.6 12.45-2 17.49-1.15 16 .65 13.92 1.88c10.37 1.39 19.8 5.41 28.94 9.41 5.4 4.05 11.36 7.61 16.76 11.94l4.66 7.22 6.71 14c4.34 8.55 6.47 18.32 9.16 27.56l6.17 28.21 2.11 14.59 1.19 16.94-.24 8.83-1.59 13.84c-1.55 8.48-3.9 16.92-10.14 22.72l-9.73 10.52c-10.93 8.49-23.57 13.94-36.18 18.84l-21 7.39a79.8 79.8 0 0 1 -14.41 3.46l-16.49 2.55-7.92 1.39-91.42 14.89-187.72 30.61-11.08 1.77-62.78 10.1-14 2.41-119.89 19.73-63 10.35-67.64 11.17-78.17 12.7-1.41 1.26-17.79 1.93-27.31-.48a105.52 105.52 0 0 1 -55.56-17.34c-3.92-1.83-6.41-5.19-9.73-8.06l-8.8-10.14a101.78 101.78 0 0 1 -9.34-15l-5.69-12.93a57.07 57.07 0 0 1 -2.87-20.5l.78-13.88c3.57-20.42 11.85-39 27.42-53.36l12.64-10.26c9.83-8 21.85-11.89 33.34-16.05 7.07-1.75 13.91-4.3 20.72-6.34l38.06-9.62 27.68-5.93 21.13-3.89 50.43-10.52 40.44-9a85.69 85.69 0 0 1 8.95-1.9l51.51-10.2 36.35-7.86 23.61-5.09 26-4.94 18.45-4c1.09-.21 2.7-.38 2.51-1.75.07-1.06-.4-2.42.19-3.2-12.61-4.46-26.44-6.58-40.84-7.66 3.62-2.49 7.28-5.49 11.42-7.66 0-.8-.77-.57-1.28-.87l-6.68-.38c-7.36 2-15.41 2.07-23 3.5l-18.5.3-16.77-2-17.25-3.13-18.77-4.54-17.4-5-7.85-3.12c-3.22-.18-6.09-1.43-9.06-1.06-13.41.31-24.93-4.62-35.29-10.84l-12.37-8.73c-.27 0 0-.27 0-.53 3.26-.62 6.74-.43 9.76-1.87-7.2-5.22-16.51-6.56-24.05-10.73-13.05-6.11-24.08-14.77-33.94-25.23l16.07.37a77.54 77.54 0 0 0 8.05-.35c-2.28-2.27-4.89-3.5-7.49-5l-13.61-5.6-12.8-5.81c-13-6.9-22.83-17.91-32.65-29.18l.29-.26c4.56-.26 9.36.27 13.42-.57a3.39 3.39 0 0 0 -1.79-1.44l-16.89-9.26-7.74-4.73-15.69-11.34-9.67-9.11-16.2-16.73c-2.81-2.56-5.61-5.13-8.39-8l.28-.25 10.67 1.16 29 2.73 29.34 2.46 33.42 1.36 35.91-.1a132 132 0 0 0 18.59-1.63l-.25-.28-19.84-9.42-14.25-7.78c-.76-.85-2.1-.66-2.86-1.5l-12.41-8.21c-1.52-1.43-3.61-2.35-4.85-4l10.93.89 36.18 4.73 19.49 1.37 83.84 5.3 23.09-.83 31.36.16 50.09.44 20.16-1.27 12.41-1.44 26.81-4.9 21.12-3.9 22.13-2.49a143.26 143.26 0 0 1 15.83-.44l14.4 1.36z" fill="#ffcb05" transform="translate(-66.05 -293.06)"/><path d="m884.3 524.44c6.53 12.42 2.62 29.34-5.46 39.59v.54c9.68 8.85 14.33 21.43 11.71 34.42-4.82 23.57-28.41 38-49.59 42.72l-14.07 2.41-44.65 7.65-50.36 8.92-24.88 4.22-53.87 9.26-.73-1.11-12.29-25.06-.24-.28-20.87 3.62-11.91 2-.6 1.3-9.72 29.45-6.51 1.51-19.23 3.45-19.2 3.2-29.24 5-.51-.3-14.37-16.08-9.58-10.73-.55.25-1.75 31c-1.65.72-3.25.62-4.89 1.06l-14.08 2.43-47.34 8-18.41 3.24-17.32 3-50.63 8.9-9.16 1.44-.52-.3 2-16.5v-.27a106.55 106.55 0 0 1 -47.48 24.61l-13.3 3-33.85 6.12-14.06 2.15-.49-.83 2.27-30.44 1.49-35.54 1.15-43.86.3-19.54.23-8.56.57-.77 53.6-9.29c14.52-1 32.24-1.64 44.38 6.55 4.67 2.67 8.46 6.64 12.52 10.61l.36-1.58 1.26-22.16c-.44-1.64.22-3.74 2.35-3.61l18.12-3 62-11.21 5.95-1 21.15-3.59 24.36-4.24 30.85-5.48.26.29-1.67 15.16.87-1 8.4-16.18 47.11-8.31 13.82-2.4 70.36-11.81c1.76 2 2.91 5.26 4.39 7.75l5 11.54 14.66 29.49 5.09 9.93h.25l1.05-18.42 1.37-43c.07-1.07-.6-3.51 1.52-3.12l59.27-10.3.5.83-3.23 85 .53.29 24.6-4 5.69-1 .6-1 4.35-59.8 1.76-26.15v-.53l5.15-1 40.87-7.32c10.83-1.79 21.67-3.86 33.63-2.11 4.5 1.06 9 2.12 13.14 4.49 7 3.36 12.31 9.82 15.68 16.44" fill="#fff" transform="translate(-66.05 -293.06)"/><path d="m573 588.2-6.53 16-11.2 27.22c-2.8-2.57-6.09-6-8.62-8.8l.32-.79 12.26-22.34 12.49-21.79c4.75-8 9-15.83 14.2-23.56l-2.55 7.09z" fill="#ffcb05" transform="translate(-66.05 -293.06)"/><path d="m943.35 441.67c24.5 2.72 47.54 12.34 60.25 33.95 8.09 13.05 12.09 27.47 14.72 42.62l4.77 29.2 2.24 17.26 1.75 21.27c2.67 23.73-12.67 43.76-31.59 55.81-12 8.15-25.66 13-39.31 17.31l-15.24 4.22-20.61 4.2-8.33 1.39-19.23 3.46-66.57 11.23-29.2 4.77-39.49 6.33-44.37 7.39-43 6.94-64.65 10.52-43 6.94c-7 1.21-14.06 2.14-21.11 3.35l-61.38 9.91-70.33 11.55-67.67 11.71-56.54 9.37-11.1 1.78-20.31 2.85-14.87 2.36-16 2.58-22.12 2.49-15.6 1h-13.89l-19.77-1.13c-26.59-3.65-51.74-13.91-67.07-36.48-16.09-23.38-24.73-54.68-13.73-83.52 9.3-27.07 32.82-49.57 59.67-59.83l12.6-4.64 20.73-5.83 25.83-6.57 51.27-11 73.5-15.39 39.61-8.46c4-.57 7.89-2 11.93-2.54l36.86-7.53 49.88-10 52.36-11.22c2.19-.68 4.28.25 6.38.89l18.92 6.7c0 .26.8.32.24.55-3.21-.18-7.48-.42-9.81 2.65a7 7 0 0 0 2.09 5.75c4.19 1.85 8.57.22 12.39-.9 1.37-.73 1.48-2.6 1.31-4.22-.52-.3-.77-.58-.74-1.11l.27-.25 15.09 3.54 9.63.27 13.73-1.36a40 40 0 0 0 8.18-2.49c1 1.4-.95 2.63-1 4.24-.52 4.25 1.18 7.56 1.22 11.58a5.09 5.09 0 0 1 -2.17.42c-.74-1.11-.36-3-.81-4.33-1-2.47-.49-5.66-3.35-7.17-5.57-1.11-12.53-1.24-15.5 3.68.07 3.75 2 7.09 1.26 11.06-.55.23-1.11.74-1.9.42-1.12-3.81-1.16-8.1-2.81-11.94-2.26-2.54-6.37-.9-9.35-.26-1.67 1-3.86 1.65-4 3.79.06 3.75 1.46 7.31 1.27 10.78a8.09 8.09 0 0 1 -2.44.4c-.89-3.26-.94-7-1.82-10.29-3-3.92-8.73-2.09-12.54-1.23-1.94 1.22-5.46 1.83-4.83 4.81a59.59 59.59 0 0 0 1.35 9.45c-.32.79-1.12.74-1.92.7-.78-.32-1-1.67-1.18-2.76-.89-3.26-.08-8-4.32-9.07-4.51-.53-9.38 0-13.28 2.72-.95 2.63 0 5.35.36 7.78.18 1.63.62 3.26.27 4.59a1.79 1.79 0 0 1 -1.61.17c-1-1.67-.87-3.53-1.31-5.17-1-2.2-.26-4.83-2.6-6.31-3.93-1.29-8.32.33-11.16 3.12-1.29 3.94.93 7.28 1 10.77-.82.23-1.39.73-2.17.41-1.25-1.4-.36-3.23-1.33-4.89.12-2.14-1.11-3.82-2.37-5.5-3.63-2.08-7.24.13-10.54 1.55a4.4 4.4 0 0 0 -2.33 3.35c-.43 2.92 1 5.69.85 8.61-.57.52-1.63.45-2.18.69-.1-3.22-1.25-6.23-1.88-9.48-1.72-2.78-5.49-2.46-8.47-1.82-2.45.66-6 1.53-7 4.69s1.27 6 .56 9.14c-.8 0-1.91.43-2.11-.66-.89-3.26-.41-7-3.23-9.29-4.74-1.6-10.43-.33-13.57 3.25-2.33 3.08.16 6.44 0 9.65a3.28 3.28 0 0 1 -2.45.66c-1.16-3.28-.36-7.79-4-9.07a14.68 14.68 0 0 0 -13.85 3.23c-2.31 2.82-.62 6.12-.79 9.34-.83.21-1.92.69-2.7.37-.62-3.51-.61-8.33-4.55-9.89-5.61-.05-12.33.1-14.77 5.58a34.89 34.89 0 0 0 .89 7.82c-.59.78-1.37.46-2.17.41-.62-3.24-.67-7-3.48-9.58a13.57 13.57 0 0 0 -10.82 1.81 6.7 6.7 0 0 0 -2 6.85c-.07 1.33 1.41 3.29-.26 4.27-3 .64-1.68-3.31-2.66-5-.43-1.63-1.1-4.09-2.92-5-4.77-1.08-10.16-.58-13.34 3.52-1.78 3.11.7 6.47.79 9.69-1.05-.33-1.88.15-2.66-.14-1.18-3 .44-8-4.34-8.83a14.71 14.71 0 0 0 -11.67 2.56c-1.14 1.54-.74 3.69-.58 5.59 1.33 4.89 1.28 10.52 5.35 14.22.52.58.17 1.89.13 2.69a11 11 0 0 0 -8.72 2.45c-.79-.31-1.59-.36-2.07-1.19 2.25-2 5.59-4.23 4.48-8-.86-3.8-1.72-7.6-2.56-11.67a5.34 5.34 0 0 0 -2.78-3.11c-5-1.09-10.43-.32-14.34 2.41-4 4.59.26 9.66-.05 15-1.07-.07-3.23.34-2.59-1.49a90.3 90.3 0 0 0 -2.15-9.23c-2-3.06-6.59-2-9.81-1.9-3.25.62-7.34 1.73-8.9 5.67a40 40 0 0 0 .48 5.64 9.59 9.59 0 0 1 -3 .37c-1.47-2.77-.14-7-3.82-8.52a12.27 12.27 0 0 0 -11.16 3.11c-1.47 2.33-.55 5.07-1 7.72-.53 0-.83.49-1.62.18-1.23-1.94.33-5.61-2.83-6.6-5-1.35-10.2 0-14.35 2.4-2.78 1.72-1.1 5.3-1.24 7.7-.8 0-1.37.47-2.17.42-1-2.2.06-5.62-2.54-7.11-4-1-8 .08-11.64 2-3 1.7-1.62 5-2.06 7.92a3.92 3.92 0 0 1 -2.43.39c-.93-2.46.07-6.16-3.65-6.63-4.55 0-9.39.28-12 4.13-.84 5.31.47 10.48 2.35 15.14a11.6 11.6 0 0 0 11.89 3.07c.89 3.28-1.66 5.55-.79 9.08 1.44 3 .68 7 0 9.91h-.54c.24-4.28-2-7.62-2.28-11.65-2-3.32-5.4-4.06-8.57-4.78-4.37 1.36-8.85 4.86-10.16 9.07-1.1 5 1.06 9.43 2.15 13.79a7.05 7.05 0 0 0 4 4.24c5.85.87 11.55-.42 15.54-4.47a55 55 0 0 1 -.27 9.35c-1.1.48-2.09-.92-3.14-1.23a13.71 13.71 0 0 0 -13.38 4.32c-3.36 2.49-.93 6.91-.84 10.12 1.67 3.58.6 8.35 3.93 11s8.12 3.4 12.44 2.84c0 4-.47 8.28-.43 12.3-.29.25-.81 0-1.09.21-1.42-3-.06-8.3-4.58-9.11-2.9-.69-5.77-2.19-9-1.31-3.33 2-8 4.64-8 8.92a45.09 45.09 0 0 0 5.15 18c1.22 2.21 3.32 2.85 5.74 2.72a14.12 14.12 0 0 0 10.42-4.22c.72 1.65.32 4-.08 6.17-5.39.49-12.36.63-15.09 6.09 2.09 5.75 1.09 14 7.88 17.06l5.32.84c-.1 1.6.32 3.77-.56 5.06.57 4 2.7 9 6.91 10.3 5.32.83 10.7.34 14.11-3 1.51-3.13-1-5.68-.84-8.62a4.41 4.41 0 0 1 2.69-.37 10 10 0 0 0 5.46 7.8c5.32.58 11.23.38 14.69-4 .67-2.37-1.09-4.35-1-6.75 4.36-1.36 3.23 4.47 5.25 6.45 4.14 2.65 9.83 1.64 13.45-.84 2.87-3.32-.41-7-.22-10.18.79 0 2.25-2 2.4.12.91 2.74.73 6.21 3.86 7.73 4.76 1.07 10.41.59 14.08-2.68 1.83-3.93-.91-7.56-1.22-11.59.84-.49 1.67-1 2.43-.4.83 4.33 1.88 9.49 6 12.13 4.53.51 9.87.82 13.3-3 2.84-2.78-.2-5.9-.31-8.86-.94-2.19-.81-4.59-2.87-5.78-1.07-.32-2.12-.66-3.17-1 1.13-1 2.79-2 3.92-3 3.42 1 6.45-.17 9.21-1.62h.79l-.16 2.93c-2.15.15-4.86.8-5.79 2.88a19 19 0 0 0 2.41 10.89c2 3.07 6 3.29 9.22 2.94 3.5-.34 7.32-1.45 8.84-4.85.15-2.41-1.35-4.63-1.18-7.3a4.87 4.87 0 0 1 2.16-.42c.9 3 1.24 6.5 4.37 8 5.3 1.1 10.71.06 13.88-3.77 1-2.62-1.07-4.88-.93-7.28a2.85 2.85 0 0 1 2.17-.41c.67 2.44 1.3 5.43 3.59 7.43 3.62 2.36 8.29.47 12.06.15 1.92-.7 2.82-2.53 3.7-3.81a67.26 67.26 0 0 0 -1.2-7c.79.06 1.62-.43 2.42-.39.65 3 1.79 6.26 4.65 7.76 4.27.51 9.88.83 12.25-3.33.95-2.34 0-4.81-.67-7a6.81 6.81 0 0 1 2.46-.92c.64 3 1.23 6.76 4.92 7.78 4.58-.28 9.7-.79 13.35-3.8.93-2.09.26-4.53.11-6.69.82-.22 1.66-1 2.42-.13.93 2.46 1.27 6 4.44 6.67 4.51.81 9.1.26 12-3.06.66-2.37-.57-4.32-.72-6.47a2.72 2.72 0 0 1 2.46-.67c.66 2.45 1.54 6 4.42 6.95 3.13 1.79 6.68.39 9.69-.52 3.09-2.5.58-5.59.48-8.55 1.09-.2 3-1.16 2.89 1 .95 2.19 1.58 5.18 4.53 5.34 4.52.53 9.85 1.1 12.77-3.29.41-2.38-.55-4.32-.68-6.73 1.05.32 2.2-1.22 2.67.15a9.23 9.23 0 0 0 4.39 7.48c4.53.52 10.15.57 13.06-3.28.56-5.33-1.56-10.26-2.63-15.14a3.84 3.84 0 0 1 -1.61-4.66c2.95-.09 6.21-.72 7.71-3.57.4-2.38 0-4.55-.15-7l2.54 2.56c.71 1.65.57 4 2.66 5 3.5-.34 4.36 3.73 6.66 5.47l2.77 3.37c1.37 4.1 0 9.91 4.65 12.31 3.18.73 6.92.66 9.72-1.31 4.15-2.18 1.44-6.35 1.35-9.57 0-.54 1.4-1 2.2-1 .9 3 .41 7 3.79 8.79a13.13 13.13 0 0 0 11-.19 7.57 7.57 0 0 0 3.51-5.15l-1-6c.85-.75 1.91-.43 2.72-.66 1.17 3 .39 7.26 4.06 8.81a13 13 0 0 0 12.76-3c1-3.15.06-5.88-.29-8.85a5 5 0 0 1 2.16-.41c.37 3 .7 6.46 3.79 8.78a14.86 14.86 0 0 0 13.8-2.43c2-2.82.64-6.39.53-9.34 1.09-.21 2.19-.68 2.08 1.19.1 2.94 1 6.48 4.13 7.73 5.58.85 11.54-.42 14.47-4.8 1.81-3.65-.11-7.52-.71-11-.12-2.69-2.68-5-4.48-6.15a7.84 7.84 0 0 0 -8.34.59c.73-3.42 1.48-7.41 3-10.8a9.82 9.82 0 0 0 6.79 7.88c3.93 1.56 7.52-.38 10.08-2.91 2-1.76 1.08-4.76 1.21-7.16-.36-3-1-6.22-1.37-8.92l1.91-.42c1.25 6.22 1 15.31 9 16.84 3.46.47 6.79-1.49 8.83-4.32 1.34-5-.52-9.94-1-14.8 5.39 4.07 1.72 12.16 8.23 15.48l5.3 10.47 1.05.59c.6 3.52.59 8.35 4.81 9.65 4.26.26 9.07.52 11.69-3.09 1.23-2.87.34-6.13.52-9.06a6.19 6.19 0 0 1 2.46-.93c1.15 3.27.09 7.76 3.73 9.85a13.71 13.71 0 0 0 12.16-1.72c3.37-2.76 2.08-8.19 1.71-11.43l2.72-.64c.93 2.72 1 5.68 2 8.14 2.49 3.36 7.11 2.28 10.37 1.39 1.39-.72 3.3-1.41 3.94-3.26 1.5-2.86-.49-5.64 0-8.84a9.54 9.54 0 0 1 3-.63c1.13 3.55-.23 8.56 3.69 10.66a15.67 15.67 0 0 0 12.48-2.78c2.24-1.75 1.38-5.28 1.52-7.95.06-1.06-1.95-3.32.47-3.45 1.67-1 1.25 1.4 1.75 2.24.66 2.45.48 5.65 3.06 7.67a15.31 15.31 0 0 0 14.05-2.67c1.47-2.06.29-5.07.43-7.46a5.74 5.74 0 0 1 -.1-3l2.95-.11c1.7 3.32-.22 8.84 4.55 9.9 5.83.88 11.79-.12 15.79-4.71.71-2.91-.2-5.91-.58-8.61 1.09-.21 1.93-.7 3-.37.61 3.51.59 8.6 5.1 9.39 4.56 0 10.67.88 12.56-4.11 1-3.15-.48-5.92-.3-8.86a3.84 3.84 0 0 1 2.45-.66c1.19 2.75.45 6.18 2.19 8.69 1.42 3.3 5.76 2.21 8.71 2.38 3-.64 6.22-1.25 8-3.83.76-3.71-.15-6.7-.49-10.2.58-.78 1.88-.17 2.7-.4 1.37 4.1-.12 11.52 6.56 11.89 4.57-.27 9.43-.8 12.56-4.1 1.29-3.67-.12-7.24-.18-11a5.1 5.1 0 0 1 2.17-.4c1.66 3.57-.54 9.6 4.46 11.23 4 .22 8.57-.05 10.41-4 .49-4-.66-7.26-.73-11a2.23 2.23 0 0 1 2.19-.67c2.2 3.87-.64 11.21 5.45 12.36 4.28.24 8.61-.32 10.95-3.66-.79-5.15.61-11-1.8-15.65-.24-.55-1.6-.09-1-1.12a35 35 0 0 0 11.56-10.06c.55-.23.6-1 1.12-.74a6.8 6.8 0 0 0 3 4.19c3.93 1.55 7.81-.64 11.14-2.58 4-3.53 1.58-9 1.85-13.84-1.16-3 .18-7.75-4.07-8.53l-1.85-.37c-.6-3.78 4.78-4 4.22-8.33-.45-6.18-2-12.16-3-18.38-.63-3-3.44-5.29-6.36-6-1.86-.1-4.07.84-5.26-1.64 1.46-2.06.79-4.51 2.77-6.27 1 .85.9 3 1.92 3.86 2.87 1.5 6.22 3.84 9.28 1.87 3-1.71 6.36-3.66 6.33-7.68-.14-7-.84-13.71-3.7-19.76-2-2.27-6.06-2-9-1.33l-.42-2.15c3.54-.87 6.89-3.1 7.89-6.79 1.19-6.63-1.41-12.68-2.67-18.9-1.35-4.63-6.65-5.47-10.89-6.52a10.41 10.41 0 0 0 -8.12 6.24c-.29.52.19 1.35-.62 1.57-3.44-.73-4.23-5.87-8.35-4a13.39 13.39 0 0 0 -4.46-1.86c-1.43-7.84-2.59-15.67-5.94-22.84-2.27-2.26-5.18-3-8.69-2.63s-7.33 1.73-9.13 5.11c-.66 2.1.57 4.05 1 6 .83 4.33 3 8.74 3.53 13.32-1.32-.34-2.45.67-3.49.07-1.28-5.69-2.3-11.38-4.68-16.61a8 8 0 0 0 -8.37-3.68c-3.76.05-7.85 1.43-9.42 5.36-.67 2.37 1.12 3.81 1.54 6 .58 4.05 2 7.88 2.55 11.93a9.55 9.55 0 0 1 -2.72.38c-1.25-6.23-2.51-12.2-5.13-18-1.48-2.22-4.71-2.14-7.12-2-3.25.62-6 1.8-8 4.63-1.28 3.68 1.5 6.52 2.12 9.76.38 2.7 1.3 5.43 1.67 8.4-.57.5-1.35.19-2.16.42l-4-15c-.15-1.89-1.68-3.32-3.24-4.21-5-1.09-10.44-.05-13.89 4-1.17 1.81 0 4.28.45 6.19 1.11 4.07 1.95 8.14 3.06 12.22l-2.45.4c-1.54-5.71-2.79-11.95-5.44-17.18-3-3.65-9-2.11-12.55-1a9.51 9.51 0 0 0 -3.93 3.27c0 5.08 2.15 9.49 3.21 14.1.66 2.72 1.8 6.26 4.68 7.5a16.48 16.48 0 0 0 10.06 1.92c.44 1.89 0 4-.08 6.15-1.09.48-1.8-1.18-2.58-1.76a25.57 25.57 0 0 0 -9.69-3.76c-3 .37-4.76 3.49-5.45 6.12-.68 7.46 1.9 13.77 2.86 20.52a6.4 6.4 0 0 0 5.66 4.08c2.66.41 5.12-.52 7.56-.92 1 .6.15 1.89.12 2.68-4.08.84-9.5 1.87-10.31 6.65l-.14 2.67 2.22 15.01c1.48 2.23 3.6 2.61 5.69 3.54a2.44 2.44 0 0 1 -.41 2.65c-1.6-.1-3.66-1.54-5.56-1.12-2.78 1.46-5.61 4.24-5.81 7.71a47.19 47.19 0 0 0 1 11 3.86 3.86 0 0 1 -3 .63c-1.36-4.09 0-9.38-4.39-12-3.12-1.78-7.33-3.09-10.42-.58l-1.43 1.52c-1.67-3.58 3-5.18 1-8.51-.16-1.89-1.14-3.55-.25-5.11-.37-3 .29-5.07-.08-8a50 50 0 0 1 2.84 11.4c.59 3.79 4.31 4.26 7.23 5 2.38.4 4.53.26 6.24-1.52 2.54-2.27 5.13-5.6 4-9.41-.1-2.69-1.31-5.17-1.15-7.84-.89-3.26-1.46-7.31-4.86-8.84a15.77 15.77 0 0 0 -14 5.36c-.42-2.16 0-4.82.43-7.47 5.06.55 10.19-.23 13.1-4.34 2.31-2.82 1.2-6.91.58-10.16-1.6-4.91-.38-12.07-6.45-14-1.83-.64-3.92-1.56-6.09-1.15l.18-3.21c2.88 1.24 7.65 2 10.46-.21 2.27-2 4.8-4.28 4.2-7.79-1.57-5.18-2.32-11.12-5-16.09-4.31-4.26-10.91-1.42-15.56.19-.56.5-1.41 1.25-1.45 2.06 1.28 5.7 2.84 11.15 3.86 16.82-.3.79-1.63.44-2.19 1-1.06-4.89-2.66-9.8-4-14.7-1.42-3.29-5.71-3.27-9.2-2.93-2.45.67-5.7 1-7.19 3.61-2.21 6 2 11.1 2.53 16.74-.31.8-1.36.46-2.17.68a67.26 67.26 0 0 0 -4.3-14.16v-.81c3.32-1.94 5.68-5.57 7.47-8.94 3.26-.63 7.79-.1 9.31-3.5.1-1.6-.33-3.49-1.91-4.12-1.83-.64-2.75 1.45-4.3.56a61.55 61.55 0 0 0 1.76-17l15.48-3.4 40.4-8.42 57.51-12.28 5.43-1.29 27.36-5.14 25.09-2.87 17.49-1.15 11.54-.42z" fill="#b61d22" transform="translate(-66.05 -293.06)"/><path d="m404.76 380.63c9.34 10.17 18.85 17.42 29.66 25.25l-.56.52-32.67 4.3-53.19 6.35-26.95 2.76-23.14 1.64-24.44 1-17.42.08c-19.75-1.66-32.83-16.59-45.71-30.45l-10.18-9.08a15.7 15.7 0 0 1 -2-1.72l39.27 2.23 21.4.68 33.51-.25 38.1-.77 38.67-1.3 27.89-1.41c2.9.7 5.44-1.3 7.75.17" fill="#00733c" transform="translate(-66.05 -293.06)"/><path d="m572.67 406.51 9.16 4v.53l-10.24 10.4-15.59 14.12c-5.71 6.11-14.1 7.5-22.29 5.42-5.54-1.64-11.65-2.52-16.89-4.7 2-1.76 25.17-18.4 25.17-18.4l10.07-7.46 12.52-8.13c2.9 1 5.46 3 8.07 4.22" fill="#00733c" transform="translate(-66.05 -293.06)"/><path d="m602.36 417a113.13 113.13 0 0 1 -7.36 12.2 106.37 106.37 0 0 1 -10.56 11.45c-7.83 5.71-18.76 4.56-28 3a1 1 0 0 1 -.22-.81l16.1-14.62 12.19-11.63 3.69-3.55 11.8 3.05z" fill="#00733c" transform="translate(-66.05 -293.06)"/><path d="m618.05 419.25c1.16 7.58-6.14 13.59-12 17-5.22 2.39-10.46 5-16.41 6 .64-1.84 3.37-2.75 4.54-4.57 5.44-6.12 9.06-13.14 13.44-19.59 3.46.47 7.21.67 10.4 1.12" fill="#00733c" transform="translate(-66.05 -293.06)"/><path d="m443.46 411.76a211.64 211.64 0 0 0 23.59 14.24c-21.14 8.71-52.1 11.24-71.07-3.77a17.78 17.78 0 0 1 -4.37-3.46l5.39-.77 14.06-2.16 10.53-1.27 20-3.16z" fill="#00733c" transform="translate(-66.05 -293.06)"/><path d="m394 429 12.39 8a22.1 22.1 0 0 1 3.37 2.06l-6.54 1.77-37.12 7.27-34.37 5.82-32.14 4.34c-14.65 3.18-28.19-3.74-38.1-13.41l-11.19-10.3-6.15-5.18v-.52l17.65.46 27.11-.6 18.82-1.07 20.46-1.8 26.43-2.78 25.38-3.06 1.84.63z" fill="#00733c" transform="translate(-66.05 -293.06)"/><path d="m485.06 434.2c4.46 1.87 8.92 3.46 13.39 5.05a76 76 0 0 1 -31.13 10.29c-13.26 2.2-25.89-2-36.83-7.44l.84-.76 14.67-3.72 27-8.12c4.52.8 8.12 3.41 12.06 4.7" fill="#00733c" transform="translate(-66.05 -293.06)"/><path d="m534.71 447.47 5.59.59v.54c-17.82 11.58-42.28 12.87-64.5 7.85a157.15 157.15 0 0 0 31.91-14.52l13.48 3.43z" fill="#00733c" transform="translate(-66.05 -293.06)"/><path d="m568.51 451.27v.27c-10.27 6.37-22.16 12.93-35.38 9.51v-.54l15.39-11.45a72 72 0 0 0 20 2.21" fill="#00733c" transform="translate(-66.05 -293.06)"/><path d="m436.64 451.82c3.93 1.57 7.87 2.86 11.51 4.67l-12.29 4.39-17.51 6.24-24.83 7.7-24.52 6.64-17.92 4.07-14.08 2.16c-11 .71-20.72-3.06-29.55-8.11l-13.93-9.36c-1.56-.9-3.36-2.34-4.91-3.22l16.74-2.27 15.13-2.08 18.66-3 37.12-6.65 42.87-9.09 4.18 1.84z" fill="#00733c" transform="translate(-66.05 -293.06)"/><path d="m877.33 525.05a31.54 31.54 0 0 1 2.85 20.78 46.58 46.58 0 0 1 -8.6 19.33c5.33 5.4 10.59 11.85 11.75 19.42 3.6 17.08-7.11 30.94-19.17 40.43-8.41 6.49-18.75 9.39-28.82 12l-80.42 14.49-30.58 5.23-36 6.25-17.34 3.02c-5.39.49-10.29 1.82-15.41 2.34l-6.49-13.23-6.76-13-2.94-.18-27.63 5.13c-3 .9-6.72.42-9 2.43l-10 30-11.11 2.05-34.38 6.09-22.74 3.79-8-9.29-19.9-22.56c-.78-.3-1.21-2.21-2.34-1.2l-1.83 22.66-.9 15.76c-4.89 1.32-10.28 1.83-15.42 2.87l-13.81 2.43-11.11 2-15.15 2.62-95.24 16h-.27l.87-10.67 1.5-17.07c.3-.51.06-.79-.2-1.08l-1.91.7c-12.52 17.5-31.76 30.61-52.19 36.41l-13.58 3.25-6.51 1.23-34.91 6.06 2.42-37.91 1.72-44.36.83-38.25a60 60 0 0 1 .13-7l1.1-.46 20.82-3.38 29.22-4.77c18.95-3.21 38.48 1.92 49.37 17.81 2.74 3.63 4.37 8 6.81 12.18.54 0 1.08-.22 1.11-.75l2.1-36.85c-.45-1.36.4-2.39.47-3.45l14.9-2.9 44.1-7.41 34.1-5.84c.55-.24.51.57.48.84l-3.56 29.96-.38 6.94-11.91 2-24.07 4a16.11 16.11 0 0 0 -5.18 1.31c-.34 1.32-.18 3.2-.53 4.8 1.29.87 2.93.16 4.28 0l33.24-4.8-3.79 38.35-28.66 4.54-7.84 1.16c-1.17 1.82-1.05 4.23-1.17 6.36 1 .87 2.67.16 4 .24l19.51-3.72 27.61-4.86.87-1.29 3.09-35.46 2.5-39.23.75-13.08 23-3.79 27.86-4.58h.27l-.95 12-2.26 20.71a.94.94 0 0 0 .22.8h.27l5.37-9.61 14.69-27.56c4.09-1.1 8.66-1.38 12.74-2.49l19-3.21 23.53-4c.54 0 1.1-.47 1.62-.18v.81l-9.75 16.05c-3.25 5.17-6.48 10.34-9.46 15.53l-20.47 35c-.63 1.57-3.18 3.85-.3 5.07l18 18.44a2 2 0 0 0 1.3.6l1.49-2.58 16.63-42.73 14.55-39.07 3.23-9.74 1.1-.47 49.24-8.46.8.31 12.2 24.81 23.43 45.27c.76.57.43 1.63 1.25 1.41l.85-.75 1.26-26.72 1.69-44.1.16-7.49 8.67-1.66 42.48-7.23.25.28-3.18 60.63-.26 23.56c.49.82 2.12.65 2.91.42l26.27-4.4c3.79-.86 7.83-1.16 11.4-2.56l3.06-30.36 2.42-28.53 2.07-26.93c5.43-1.3 11.39-2.3 17.07-3.32l26.2-4.44 1.08-.21 17.53-1.95c14-.55 26.78 5 34.71 16.17" fill="#00733c" transform="translate(-66.05 -293.06)"/><path d="m870.46 528.14c6.09 10.78 1 24.69-5.66 33.69l-4.3 4.85.22.81c8.86 4.53 16.14 13.24 15.81 23.67.19 15.55-11.56 29.08-25.3 35-9.69 5.34-20.79 7.39-32.14 9.15l-41.42 7.3-1.87-.11.1-1.87 2.76-24.76 5.09-56.76 2.55-35.49 3.53-.6 13.81-2.69 22.18-3.56c15.15-2.37 35.3-3.37 44.64 11.37" fill="#b61d22" transform="translate(-66.05 -293.06)"/><path d="m836.73 541.76c3 3.65 2.95 9.27.86 13.17-3 4.92-8.69 6.74-13.62 8.61-2.15.14-3.82 1.12-5.94.74l1.97-20.28.88-6.12c5.44-1.31 12.1-.65 15.86 3.85" fill="#00733c" transform="translate(-66.05 -293.06)"/><path d="m730 534.09-2.5 52.91-.67 30.75c.22.83-.1 1.61.41 2.16l6.48-1 36.28-6.21c.53 0 1 .33 1 .86l-2 21.59-1.31 8.76-3.53.87-25.16 4.73-7.84 1.17-70.64 12.06c-1.6-.09-1.76-2-2.5-3.08l-7.25-14.08a99.63 99.63 0 0 0 -5.57-10.49l-3.25.61-26 4.42-17.63 3.55c-2.39 4.43-3.21 9.47-5.08 13.91l-6.37 17.85-8.14 1.69-51.4 8.6-.77-.59-13.29-16-18.15-20.06c-1.55-1.15-2.49-3.62-4.32-4.26l-.8 10.12-2.69 37.07c-.06 1.07-1.13 1-1.94 1.23l-3.52.6-23 3.79-9.74 1.59-1.29-.88.92-11.47 1.86-18.64 4.7-63.75 1.34-23.47.56-.51 12.72-2.22 27.32-4.34.21.81-4.66 49v.81c3.52-5.43 6.79-11.14 9.8-16.85l17.33-31.43 4.08-7.27.86-.75 18.12-3 23.28-4a.58.58 0 0 1 .5.57 21.57 21.57 0 0 1 -3.76 6.18c-.66 2.1-2.08 3.63-3.27 5.7l-19 32.94-11.31 20 3.27 3.67 22 22.15c1.3.87 2.29 2.27 3.59 3.15l2.45-5.49 13.09-32.2 13.18-34.62 10.11-27 .54-.23 42.22-7.25c1.35-.19 1 1.4 1.77 2l15.13 30.86 19.09 36.7c3.4 6.1 6.54 12.16 10 18l.57-.51 2.39-37.62 1.53-26.7 1.24-31.55 3.54-.87 33.87-5.9c.53 0 1 .33 1 .86" fill="#b61d22" transform="translate(-66.05 -293.06)"/><path d="m832 545.24c2 1.73 1.35 4.63.95 6.75-1.8 3.37-5.38 5-9.14 5.37a110.74 110.74 0 0 1 1.57-13.57c2.19-.94 4.81.28 6.62 1.45" fill="#fff" transform="translate(-66.05 -293.06)"/><path d="m836.41 585.13a15.06 15.06 0 0 1 2.31 11.39c-2.94 9.2-13.35 12.89-21.47 14.58l-4.34.83-.22-.82 1.94-20c1.27-3.41-1.53-10.8 4.33-10.21 5.92-.19 14-1.33 17.45 4.21" fill="#00733c" transform="translate(-66.05 -293.06)"/><path d="m831.42 588.07a7.09 7.09 0 0 1 2.35 5.75c-1.13 5.57-6.73 10.07-12.17 11.37-1-.33-2.47 1.19-2.92-.44l1.52-17.33c2.26-2 6-1.53 8.62-.84z" fill="#fff" transform="translate(-66.05 -293.06)"/><path d="m565.08 315.78 1.67 3.31-1.36.46-23 4.05-.26-.01 3.19-9.19 7.56-19.94 1.25 1.42z" fill="#00733c"/><g transform="translate(-66.05 -293.06)"><path d="m436.16 592.14-2.46 19.69-1.36.47-31.13 5.46-7.85 1.43-.84.75-1.32 13.86c0 .53-.05.79.2 1.08l13.25-2.19 17.35-2.78c2.42-.13 4.34-.82 6.76-.95a2.2 2.2 0 0 1 .67 2.18l-2.52 25.57c-1.38.73-3 .37-4.34.83l-33.57 5.59-.28.26-1.63 14.36c.21 1.09-.4 2.4.36 3.25l5.41-.78 18.66-3.22 27.87-4.85c1.3.88.09 3.22.26 4.84l-1.28 17.87a22.81 22.81 0 0 1 -.88 6.11c-4.36 1.37-9.49 1.87-14.09 2.69l-27.88 4.85-46.52 7.54a1.13 1.13 0 0 1 -1.56-.89l4.56-52.25 4.2-64.58 7.87-1.7 17.58-2.76 36.82-6.47 17.31-3 1.06.34z" fill="#b61d22"/><path d="m624.13 609.25a42 42 0 0 1 -7.85 1.43 29.24 29.24 0 0 1 3.48-9.45 28.67 28.67 0 0 1 4.37 8" fill="#fff"/><path d="m311 611.83c13.28 2.1 24.47 12.64 29.4 25 5.56 15.32 3.92 34.77-1.51 50.28-8.79 17.71-27 31.41-45.79 37l-11.45 3.37-22 4.91-15.41 2.34c-1.86-.37-4.66 1.61-5.58-.84l3.14-55.28 1.55-60.45.58-.77 33-5.09c8.38-1.39 16.77-2.8 25.86-2.28 2.64.68 5.88.33 8.2 1.8" fill="#b61d22"/><path d="m307.67 651c6 12.39.81 28.17-7.49 37.61-6 6.62-14.48 9.63-23.36 10.19l2.78-58.5c.34-1.32 1.93-1 3-1.17 7.82-.9 16.6.41 21.89 6.33z" fill="#00733c"/><path d="m300.14 651.39c5.48 7.54 3.48 19-.68 26.22-3 6.52-9.81 12.31-17.08 12.95l-.45-1.36 1.82-36.85c.64-1.85-.49-5.66 1.47-7.16a13.84 13.84 0 0 1 14.92 6.2" fill="#fff"/><path d="m395.24 392.68-.83.49-45.1 6-35.05 3.64-33.9 2.37h-18.22c-9.33-.8-18.9-2.15-24.94-9.18 0-.54.84-.49 1.37-.46l34 .86 47.74-.77 66.63-2.92c2.68-.12 5.67-.75 8.31-.07" fill="#b61d22"/><path d="m378.34 430.56-.82.49-26.06 5.75-30.58 5.2-20.81 3.11c-7.84 1.16-17.22 1.16-23.95-3-.5-.56-1.56-.89-1.22-1.94 3.25-.89 7.23.15 10.74-.47l18-1.11 15.36-1.22 22.38-2.48 35.1-4.7c.81.05 1.35-.19 1.85.37" fill="#b61d22"/><path d="m412.58 455.27-17.24 6.52-16.1 5c-15.81 4.73-31.6 9.19-48.8 9.81a25.58 25.58 0 0 1 -12.68-3.13l1.38-.72 14.56-1.58 14.07-2.42 23.6-4.82 18.72-4.29 21.47-5.21a3 3 0 0 1 2.15.11z" fill="#b61d22"/><path d="m649.1 297 17.17 4.45c10.29 2.73 19.67 7.55 28.47 13.14 9 6.67 14.27 17.68 15.54 28.21.49 5.64-3 9.74-3.79 15.05l-6.24 24.82-3.08 16.43-2 17.3-1.17 10.92c15.08 12.91 28.33 29.46 31 49.16 1.62 13.75-2.59 26.64-13.78 34.85-7.88 6.78-19.5 8.53-29.48 4.75-1.33-.08-2.3-1.74-3.43-1-4.72 7.76-13.13 14.25-22.77 14-2.38-.4-4.79-.54-6.84-2 4.19-7.81 7.34-16.2 8.14-25.52a42.48 42.48 0 0 0 -21-41.11l-5.73-3c1.87-4.45 5.33-8.54 5.61-13.61l-.24-.27c-6.25 6.06-12.76 12.38-20 16.8v.54c11 5.44 22.25 14.11 26.93 26.16 5.17 12.61 3.88 30.76-6.06 40.64-6.83 6.84-16.13 10.34-25.92 8.18-2.37-.94-5.27-1.64-7-3.62 2.59-3.07 5.45-6.12 7.26-9.77 8.54-18.27 1.69-39.27-9.27-53.82-2.94.1-5.73 1.81-8.72 2.45-1.36.45-3 .36-4.36 1.35 4.84 18.5 4.22 43.64-11.5 56.14-6.76 5.78-15.24 8.78-24.52 6.92l-7.39-1.76-15.55-4.65-16-5.72-23.1-6.41a77 77 0 0 0 -30.2-1.46c6.66-3.9 13.55-7.26 20.19-11.16-.76-.58-2.15.14-3.22.34a125 125 0 0 1 -57 3.73l-15.63-3-19-4.56-13.53-2.65-17.77-3.15c-2.64-.68-5.59-.59-8.51-1l16.26-3.35 7.07-1.75 19.05-5.07 14.17-4.29 13.36-4.07 15.48-5.31 29-10.67c5.24 1.9 11.09 2.77 16.65 4.16l-.84.49-15.67 7.14-21.69 9-17 6.26c-2.47.93-4.91 1.59-7.11 2.54 1.83.64 4.29 0 6.43-.18l8.13-1.4 13.86-3.24 14.24-4.58 11.5-4.18 16.74-7.09 6.08-3.14c5.1 0 10.44.33 15.25.34l-2.51 2.3-15.06 10.1c-8.07 5.17-16.34 9.51-24.38 14.15 8.6-.58 16.53-3.35 24.47-6.39l7.69-3.3 12.45-6.56c4.44-2.7 8.62-5.68 13.07-8.36a40.88 40.88 0 0 0 13.78 2.65v.27l-15.58 9.83-12.5 8.16-16.08 9.27c-1.4 1-3 1.42-4.43 2.41 2.34 1.21 5.31 1.12 8 1.27 12.85.18 23.65-5.89 33.44-13.11-1.55 8.49-8.07 14.82-13.79 20.92 6.71-.15 12.11-5.47 17.17-9.48 12.35-10 16.44-25.31 28.79-35.06.34 3.24.4 7 .74 10.49l1.11 13.46c.37 12.34-2 26.13-12.66 34.1.49.84 1.88.11 2.66.42 10-1.85 18-11 21-20.24 5.1-14.18.85-29.15-4.62-41.51 22.13 2.33 40.46-9.23 56.05-24.14 5.78-7.45 13.4-14.24 15.29-23.78l-.25-.28-11.28 9.81c-2 1.49-4.48 3.22-6.7 4.71-.47-5.92 2-11.68 1.52-17.33a1.24 1.24 0 0 0 -.72-1.38c-20.61-.63-38.17-7.52-53.93-18.06a81.93 81.93 0 0 0 -10.5 5.83l-12.56 8.67-21.62 16.46c-4.48 3.23-7.94 7.58-13.6 8.07-10.53 1.54-20.53-2-29.13-6.2l-19.23-10.48c-.55.24-1-.59-1.55-.88 4.09-1.38 8.44-2.2 12.78-3.3l32.1-8.37 28.9-8.84 23.5-8c.28 0 0-.27 0-.54l-3.32-2.87c-5.44 1.3-10.64 3.15-15.81 4.73l-23.39 6.68-22.88 6-25.23 5.53c-8.46 2.73-20 3.15-27.44-2.9l-10-7.26-12.59-9.56c-1.28-1.15-3.08-2.32-4.07-3.71 2.45-.66 5.12-.52 7.29-1.2l18-1.12 21.56-2 32.61-3.24 45.87-5.71c.55-.24 1.88-.16 1.12-1l-4-4.25-4.29.29-54.25 6.56-19.98 2.07-22.88 1.66-23.67 1.6-4.3.29-5.84-5.69-9.91-10.2c-1.26-1.41-2.52-2.83-3.53-4h-.27c2.56 6.85 5.12 13.69 10.42 19.35l-.55.49-31.17 1.46-44.27 1.54-28.69.24h-33.76l-28.36-.81-24.27-2.17c-11.45-1.19-20.47-7.6-29.19-14.25l-11.74-10.57c-5.33-5.13-10.08-11.29-14.86-16.66l-10-12.08 25 3.83 30.89 3.62 37.88 3.23 60.81 3.62 34 1.4 38 .82 16.87.15 45.67-2 25.78-1.37 15.61-1.26 20.22-2.06 15.93-2 1.86.11 23.56-4 22.4-2.75 17-1.71 17.74-.87 17.93.47c20.82 1.46 41 5 56.94 16.63a21.16 21.16 0 0 1 6 16.15l-3.85 29.68-5.36 51.66-.35 6.41c16.55 15.14 26.1 35.77 22.9 59.16.49.83 1.08-.21 1.63-.44 8.77-8.08 10.84-21.08 8.56-33 7.26 4.44 10.53 12.92 10.87 21.24 3.28-6 3.51-14.53 2-21.05-2.87-15.7-15.79-28.74-29.9-35.18l-.22-.81 1.67-20 4.3-42.61c1.09-5 .89-10.94 2.51-15.94 1.8-12.75-5.88-23.9-15.94-30.63-5.92-4.37-13.58-6.14-20.7-8.41l-14.3-3-10.91-1.42-17.1-1-20.94.69-14.8 1-18.59 1.89-23 3c-6 1-11.91 2-18.15 3.26l-25.06 2.58-45.52 3.86-12.64.89-46.25 2.73-15.57.45-36.16-.17-25.65-1.46-17-2.58c-18.52-4.25-35.17-13-46.83-29.44l4.26.51 20.53 3.42 30.08 3.58 35.73 3.09 43.3 1.93 51.39 1 41.55-.05 32.75-.82 18.54-.82 24.06-3.74 37.31-6.17c12.68-1.43 25.38-3.38 38.75-2.9l14.93 1.39z" fill="#00733c"/><path d="m263.4 350.11 55.34 2.33 29.42.88c2.37.93 5.08.29 7.21.67l-24.78 2.08-45.44 2.51-26 .66-17.15-.17-25.1-1.42c-10.62-1.94-21.47-4.17-27.94-13.11l.05-.8 44.77 4.42z" fill="#b61d22"/><path d="m553.8 488.74c.14 11.52-5.57 22.44-16.27 26.93-4.36 1.36-9.76 2.12-14.5.5a54.39 54.39 0 0 0 13-7.82 79.61 79.61 0 0 0 16.97-19.93z" fill="#ffcb05"/><path d="m596.28 477.51c8.65 11.05 11.37 27 5.3 40.07-2.63 4.86-7.6 9.91-13 11.63.75-2 2.45-3.6 3.3-5.57 6.95-11.55 7-27.16 4-40.29a8.1 8.1 0 0 1 .4-5.84" fill="#b61d22"/><path d="m626.53 491.52c3.58 8 7 17.81 2.51 26.4-1.76 2.85-3.82 6-7.08 6.83 5.73-11.2 4.74-26.79.56-38l.29-.52c1.82 1.17 2.5 3.35 3.72 5.29" fill="#b61d22"/><path d="m471.67 481.4a122.64 122.64 0 0 1 -43.27 16.29c-4.86.53-9.71 1.32-14.76.5 11.37-2 23.55-4.29 34.77-8.47l22.72-8.35z" fill="#b61d22"/><path d="m371.44 523.52c3.05-.12 7.8.22 7.62-4.2-.13-3.36-3.09-3.65-5.79-3.54l-6.19.23.31 7.68zm10.65 11.7-3.15.11-6.6-9.75-4.87.18.39 10-2.63.1-.87-21.67 9.45-.36a10.18 10.18 0 0 1 5.33.85 5.36 5.36 0 0 1 2.61 4.58c.17 4.26-2.76 6-6.61 6.21zm6.91-11.15a17.05 17.05 0 1 0 -16.33 17.76 17 17 0 0 0 16.33-17.76m-36.47 1.41a19.41 19.41 0 1 1 20.24 18.69 19.38 19.38 0 0 1 -20.24-18.69" fill="#b61d22"/><path d="m641 531.91c-.11 1.89.61 3.53.77 5.41-1.1.21-3 .63-3.2-.45.38-1.85-.9-3-.53-4.58 1.07-.2 2.57-3.07 3-.38" fill="#b61d22"/><path d="m601.21 543.86c-.8-.05-1.91.69-2.72.65-.89-3.27-1-6.76-1.85-9.75 5.09 0 3.42 5.81 4.57 9.1" fill="#b61d22"/><path d="m622 540.75c-1.06-.32-2.47.93-3.22.09l-.67-2.72 3-.37c.49.83 1.23 2 .91 3" fill="#b61d22"/><path d="m849.19 466.85c.7 1.93 1.65 4.12.46 6.19-4 4.06-11.24 4.19-16.47 2-1.75-2.25-3.19-5-2.24-7.64 4.75-3.46 11.78-4.68 17.26-2z" fill="#ffcb05"/><path d="m827.06 469.62c1.49 2.23 2.94 5 1.46 7.31-2.59 3.07-6.36 3.4-10.12 3.45-2.39-.4-4.77-.81-6.28-2.5-.7-1.91-2.75-3.64-1.28-5.7 4.19-3.24 10.73-5 16.22-2.56" fill="#ffcb05"/><path d="m808 475c.68 1.91 1.36 4.36.45 6.18-2.88 3.58-7.62 2-11.41 2.84-1.87-.37-3.72-.75-4.42-2.66-.46-1.37-1.43-3-.54-4.59 4.2-3 9.67-5.08 14.9-2.9z" fill="#ffcb05"/><path d="m789.76 480.09c.46 1.1 1.16 3 0 4.55-3.93 3-10.38 3.44-15.67 2.06a5.75 5.75 0 0 1 -2.18-3.86c.22-4 4.79-4.29 7.78-5.2 3.52-.33 8.12-1.14 10.07 2.45" fill="#ffcb05"/><path d="m769.65 484.84a4.58 4.58 0 0 1 -1.06 4.5c-3.66 3-9.54 2.67-14.3 1.59-.77-.57-1.8-1.17-2-2.25-.43-2.17 1.79-3.39 3.18-4.37 4.35-1.09 10.68-3.95 14.18.53" fill="#ffcb05"/><path d="m749 489a3.69 3.69 0 0 1 -.48 3.72 16.67 16.67 0 0 1 -14.6 2.39 2.93 2.93 0 0 1 -1.73-2.51c1.3-4.21 6.7-4.71 10.49-5.56 2.41.13 5.1-.25 6.32 2" fill="#ffcb05"/><path d="m518.35 535.14a5.78 5.78 0 0 1 -1.08 5c-3.64 2.75-9.85 3.73-14.27 1.07-1.25-1.41-1.41-3.29-1.58-5.19 1.54-3.39 5.26-2.9 8.26-3.81 3-.37 7.27-.65 8.67 2.91" fill="#ffcb05"/><path d="m497.66 536.1c.71 1.92 1.69 3.58 1.58 5.46a6.4 6.4 0 0 1 -4.5 3.75c-2.71.39-6.5 1.24-8.8-.76a8.8 8.8 0 0 1 -.77-5.4c2.86-3.06 7.46-4.13 12-3.34z" fill="#ffcb05"/><path d="m481.4 539.73c.94 1.93 1.58 4.92.39 7a10.78 10.78 0 0 1 -11.37 2c-2.64-.69-1.66-3.85-2.35-5.77 2.89-3.85 8-4.36 12.54-3.83z" fill="#ffcb05"/><path d="m465 544.43c.71 1.66 1.4 3.57.49 5.39-3.39 3-8.77 3.51-13.27 2.46a4.76 4.76 0 0 1 -2.22-2.28c.35-1.32-.38-2.69.48-3.71 4.16-2.45 9.61-4 14.58-1.86" fill="#ffcb05"/><path d="m446.36 547.65a8.78 8.78 0 0 1 1 6c-3.41 3.56-8.49 3.28-13.33 3.54-1.6-.1-2.92-.44-3.36-2.07-.2-1.35-.63-3.25.25-4.54 4.46-3 9.93-4.79 15.44-2.88" fill="#ffcb05"/><path d="m427.06 552.73a6.62 6.62 0 0 1 -.27 4.53c-4.47 3.23-9.82 3.19-15.16 2.89-1.08-.06-1.55-1.16-2-2.26a3.91 3.91 0 0 1 2.11-4.16 18.89 18.89 0 0 1 14.26-2.13z" fill="#ffcb05"/><path d="m406.19 556.62a3.73 3.73 0 0 1 .36 3.25c-1.78 3.11-5.8 2.88-8.79 3.77-2.42.14-5.4.77-7.44-.95-1.06-.59-1-1.66-1.2-2.74 1.84-4.19 6.95-4.43 11-5 2.38.4 4.81 0 6.06 1.67" fill="#ffcb05"/><path d="m385.84 561.1c.47 1.1-.15 2.67-.75 3.71-3.33 2-7.36 2.25-11.4 2.56a3.52 3.52 0 0 1 -2.57-1.76 2.9 2.9 0 0 1 -.11-3 14.68 14.68 0 0 1 13.55-2.61z" fill="#ffcb05"/><path d="m367.16 564.33c.2 1.35.89 3.25-.25 4.54a19.88 19.88 0 0 1 -12 3.06 4.19 4.19 0 0 1 -2.79-2.83c-.45-1.36.42-2.66 1.29-3.67 3.85-1.67 8.47-3 13-2.22z" fill="#ffcb05"/><path d="m348.49 567.55a5 5 0 0 1 -.29 5.08c-3.39 3-8.58 4.86-13.31 3.25-1.55-1.15-1.44-3-1.88-4.66 2.36-3.88 7.2-4.14 11.5-4.43 1.34.08 3-.09 4 .76" fill="#ffcb05"/><path d="m329 570.73c.72 1.38 1.7 3 .79 4.86-4 4.34-10.43 4.24-16.26 3.36-.8-.3-1.83-.9-1.8-1.69a3.69 3.69 0 0 1 1.57-3.94c4.7-2.41 9.61-4 14.91-2.91z" fill="#ffcb05"/><path d="m307.23 576.72a9.23 9.23 0 0 1 .9 3c-1 3.7-5 4-8.06 5.17-3.21-.19-7.86 1.43-9.53-2.15a4 4 0 0 1 .47-3.46c3.94-3.25 9.62-4.26 15.2-3.41z" fill="#ffcb05"/><path d="m286.07 581.15c.2 1.35 1.16 3.28 0 4.56-3.07 2.23-7.12 2.53-11.13 2.57a3.73 3.73 0 0 1 -2.62-5.77c3.37-2.75 8-3.57 12.73-2.5z" fill="#ffcb05"/><path d="m213.27 608.09c.72 5.93 4.55 14.19-1.35 18.94-2.26 2-5 2.93-7.88 2a8.4 8.4 0 0 1 -5.69-3.81c0-5.08-4.44-11.23.34-15.24 3.89-2.46 8.53-4.07 13.3-3z" fill="#ffcb05"/><path d="m855.36 660.34c.43 1.62.55 4.31-1.39 5.54-2.78 1.71-6.6 2.85-10 1.3a3.59 3.59 0 0 1 -1.4-3.82 8 8 0 0 1 6.75-5.51c2.42-.12 4.81.28 6 2.49" fill="#ffcb05"/><path d="m839.1 663.16a5.13 5.13 0 0 1 -.48 4c-3.72 4.07-9.89 4-15.24 4a3.58 3.58 0 0 1 -2.26-2.55c-.09-3.22 3.24-5.18 5.7-6.11 3.8-.85 9.28-2.94 12.28.7" fill="#ffcb05"/><path d="m817 665.39a3.85 3.85 0 0 1 .59 3.79c-1.59 4.19-6.46 5.25-10.24 5.84-2.41-.14-5.4.49-7.16-1.48-.47-1.09-.92-2.73-.06-3.75 3-5.18 9.73-6.15 15.56-5z" fill="#ffcb05"/><path d="m204.82 638.68c.56 4.32 1.93 8.68 1.93 13.23a6.81 6.81 0 0 1 -2.94 4.66c-4.13 1.91-9.32 3.76-13.79 2.16-3.91-1.82-4.19-6.4-4.78-10.18-.06-3.75-1.67-8.4 2.76-10.82 3.39-3 7.85-6.25 12.26-3.59 1.81 1.17 4.17 2.12 4.56 4.54" fill="#ffcb05"/><path d="m795.55 670.34c.46 1.36-.4 2.65-1.28 3.67-3.66 3.28-9.12 4.84-13.82 2.7-1.26-1.15-1.22-2-1.41-3.31 1.63-5.24 7.54-5.45 12.12-6 1.87.12 4 .77 4.39 2.94" fill="#ffcb05"/><path d="m774.78 672.91a3.74 3.74 0 0 1 .59 3.78c-2.69 4.94-9.15 5.1-14.22 4.81-1.87-.09-4-.76-4.38-2.92a3.57 3.57 0 0 1 1.29-3.94 15.67 15.67 0 0 1 16.72-1.73" fill="#ffcb05"/><path d="m180.54 641.59c2.4 4.95 2.31 11.11 2.8 16.78-.41 2.64-2.67 4.66-4.89 5.87-4.64 1.34-10.58 2.35-15-.31l-1.45-2.23c-.82-4.6-2.68-9.53-1.34-14.28a21.44 21.44 0 0 1 11.78-9.24c3.2.19 6.09 1.15 8.11 3.41" fill="#ffcb05"/><path d="m650.44 672.54c.85 4.07 2 8.15 1.15 12.93-1.5 2.86-4.78 4-7.74 4.11-1.89.16-4 0-5.28-1.37-3.31-3.13-2.23-7.9-3.35-11.72.74-3.7 2.54-7.07 6.1-8.48 1.13-1 3-.64 4.29 0a9.76 9.76 0 0 1 4.83 4.55" fill="#ffcb05"/><path d="m752.31 676.72c1.3.88 1.19 2.75.85 4.06-3.25 5.18-9.43 5.37-15 4.51a3.83 3.83 0 0 1 -2.57-2c-.46-1.36.42-2.65.76-4a17.5 17.5 0 0 1 14.7-4z" fill="#ffcb05"/><path d="m631.81 675c.52 5.12 4.19 11.21-.07 15.54-3.6 2.2-9 3-12.37.63-2.52-2.82-1.72-7.33-2.85-10.88-1.19-3 1.37-5.54 3.11-7.59 1.39-1 2.81-2.52 5-2.66a9.77 9.77 0 0 1 7.21 5" fill="#ffcb05"/><path d="m155.74 648.75c1.92 4.13 1.91 9 2.45 13.54a9.28 9.28 0 0 1 -6.59 7.38c-3.77.6-9 2.71-12-.68-3.23-4.47-3.15-10.35-2.31-15.65 1.54-3.67 5.47-6.66 9-8.34 3.52-.59 8 .19 9.43 3.75" fill="#ffcb05"/><path d="m731.49 680.09a3.42 3.42 0 0 1 .86 3.8c-2.4 4.42-7.52 4.93-11.81 5-1.59-.36-2.94-.17-3.93-1.56-.75-.86-.4-2.44-.07-3.49 2.94-4.66 8.62-5.41 13.66-4.58z" fill="#ffcb05"/><path d="m712.74 684.65c.72 1.38.08 3.22-1.06 4.49-3.13 3-8.52 3.54-12.72 2.23a6.08 6.08 0 0 1 -1.73-2.78c-.12-2.41 2.12-4.17 3.8-5.4 3.59-1.94 9.52-2.41 11.71 1.46" fill="#ffcb05"/><path d="m100 649.87c-.54 4.53-2.11 8.72-5.23 11.76a8.8 8.8 0 0 1 -5.15.78c-2.36-.67-2.51-2.82-3.21-4.73-.3-4 3.09-7.06 6.4-8.75 1.94-1.23 4.59-.54 6.69.12z" fill="#ffcb05"/><path d="m133.13 655.5c.56 4.06 1.13 8.11 1.44 12.15-.17 3.19-2.49 6-5.51 7.44-3.25.63-7.87 1.7-11-.35-3-4.72-2.58-11.13-2-16.72 1.77-2.85 3.86-6.47 7.39-7.35 3.74.22 7.42 1.49 9.65 4.83" fill="#ffcb05"/><path d="m693.51 688.12c.1 3-2.42 4.94-4.9 6.15-3.28 1.15-7.89 2-11-.1a5.42 5.42 0 0 1 .3-5.34c3.67-3.27 9.13-5.1 13.83-3z" fill="#ffcb05"/><path d="m111.24 658.54c2.37 5.51 3.49 14.13-1.08 19-1.43 1.52-3.11 3-5.53 2.9-1.59-.09-3.2-.18-4.46-1.59-3.53-4-.74-10.49-1-15.59 1.22-2.62 2-6.06 5.22-7a9 9 0 0 1 6.84 2.26" fill="#ffcb05"/><path d="m207.89 665.11c1.25 6.23 5.17 12.61 2.66 19.16a11.59 11.59 0 0 1 -6 6.37c-5.1 0-9.54-1.9-12.52-6.35-1-5.94-5.41-13.16-.79-18.79 4.72-2.94 13-6.49 16.64-.39" fill="#ffcb05"/><path d="m673.47 691.8c.75 1.11-.13 2.4-.73 3.44-4.19 3-9.9 4.53-15.15 2.36-1.29-.61-.94-2.19-1.14-3.28 1.61-4.74 7-4.7 11-5.28a6.59 6.59 0 0 1 6 2.76" fill="#ffcb05"/><path d="m653.29 693.34a6.06 6.06 0 0 1 .06 3.74c-2.91 3.86-8.07 4.91-12.84 3.83a3.14 3.14 0 0 1 -2.24-2.53c-.45-1.64 1-2.9 2.09-3.91a14.21 14.21 0 0 1 11.63-2z" fill="#ffcb05"/><path d="m185.8 671.62c.21 5.9 4.69 11.78.88 17.73-2.56 2.26-5.15 5.59-8.67 6.21-4-1-8.73-1.84-10.89-6.26-1.61-4.9-4-10.4-2.57-16.21 4.51-4 11.31-5.79 17.69-4.88a6.24 6.24 0 0 1 3.56 3.41" fill="#ffcb05"/><path d="m634.91 696c.73 1.37 1.71 3 .52 4.85-2.88 3.59-8 3.3-12.25 3.31-1.3-.6-2.61-.94-3.08-2.31.38-1.86 1-3.69 2.42-4.68 3.57-1.67 8.22-3.3 12.39-1.17" fill="#ffcb05"/><path d="m94.87 668.34c1.41 3.55.1 7.77.13 11.79-.91 2.09-2.13 4.7-4.83 4.82-2.14.14-4.57.26-6.65-.66-1.76-2-1.62-4.64-1.74-7 1-4.49 1.12-10.39 6.3-12 2.67.16 5.33.57 6.79 3.07" fill="#ffcb05"/><path d="m515.79 693.55c.82 4.61 2.44 9 1.62 14-.93 2.08-3.4 3.29-5.56 3.43-2.42.13-4.81 0-6.35-1.44-3.28-3.66-3-9-4-13.62-.11-3 3-4.92 5.16-6.13 3.45.73 7.22.41 9.17 3.72" fill="#ffcb05"/><path d="m617.25 700.39c.64 2.71-1.6 4.46-3.55 5.69-3.82 1.39-7.91 2.5-12.41 1.45a3.86 3.86 0 0 1 -2-2.53 4.34 4.34 0 0 1 1.3-3.94 20.13 20.13 0 0 1 15.93-2z" fill="#ffcb05"/><path d="m160.08 676.32a63 63 0 0 1 2.92 14.68c-1.82 3.92-5 8.55-9.63 9.37-4.55-.26-9.87-1.1-11.47-5.74-1.38-4.11-1.66-8.67-2.2-13.25 1.91-5.25 7.94-7.59 12.8-8.38 2.94.16 6.42.36 7.59 3.37" fill="#ffcb05"/><path d="m595.84 704.53a3.38 3.38 0 0 1 -1.27 3.42 15.86 15.86 0 0 1 -15.08 1.28 2.84 2.84 0 0 1 -.34-3.5c2.34-3.35 6.64-3.64 10.68-3.94 2.42-.14 4.78.54 6 2.74" fill="#ffcb05"/><path d="m135.73 680.3a72.09 72.09 0 0 1 3.71 14.94c-.75 3.71-2.29 7.1-5.35 9.34-3.55 1.14-7.22-.41-10.06-2.18-1.55-1.16-2-3.32-3.21-4.73-1.34-4.9-4.52-10.18-1.84-15.11a14.17 14.17 0 0 1 14.47-4.56 6.35 6.35 0 0 1 2.28 2.27" fill="#ffcb05"/><path d="m575.37 706.32a4.51 4.51 0 0 1 -1.61 4.73 14.12 14.12 0 0 1 -12.69 1.69 3.16 3.16 0 0 1 -.9-3c-.13-2.42 2.32-3.08 3.71-4.08 3.76 0 8.79-3.79 11.49.65" fill="#ffcb05"/><path d="m113.86 683.35 1.2 2.21c1.33 5.16 2.92 10.07 3.13 15.71-1.21 2.6-3 5.45-6 6.88a12.06 12.06 0 0 1 -10.88-6.51c-1.6-4.91-4.08-13.08 1.23-17.07 3.33-2 8-3.83 11.34-1.22" fill="#ffcb05"/><path d="m556.9 710.62c.16 1.89-.48 3.73-2.12 4.44-4.13 1.91-10.14 3.71-14 .55a6.84 6.84 0 0 1 -.1-3.22c3.7-3.81 9.11-4.58 14.14-3.48.79.31 1.83.91 2 1.71" fill="#ffcb05"/><path d="m203.55 698.89c.79 5.11 2.36 10.3 3.14 15.44-.45 3.18-3 5.18-6 6.35-4.33.83-10.28 1.82-13.84-1.58-4.83-4.57-4.17-11.49-5.71-17.47.3-5.35 5.31-8.54 9.44-10.46 5.33.58 11.66 2.28 13 7.72" fill="#ffcb05"/><path d="m536.68 712.7c1 .58.69 1.9.9 3-.7 2.91-4.23 3.78-7.2 4.15-2.41-.13-5.64.21-7.41-1.77a3.21 3.21 0 0 1 .22-3.72c3.64-2.75 9.36-4.3 13.49-1.65" fill="#ffcb05"/><path d="m95.49 690.61c.26 4.84 3.21 9.28 1.08 14-1.78 2.85-4.72 2.67-7.42 3.06a11.15 11.15 0 0 1 -6.15-5.18c-1.69-3.31-2-8.15.12-11.52 2.88-3.58 9.63-4.54 12.35-.36" fill="#ffcb05"/><path d="m518.87 714.9c1 1.13.93 2.46 1.12 3.82-1.57 3.92-6.11 3.66-9.6 3.73-1.56-.62-4-.76-4.4-2.65a7.84 7.84 0 0 1 .47-3.47c3.61-2.2 8.54-4.07 12.41-1.43" fill="#ffcb05"/><path d="m178.17 702.27c1.22 6.76 6.33 15.89-.42 21.4-3.62 2.47-9.05 3.5-13.48 1.37-5.19-3-5.06-9.93-6.64-15.11-1.41-3.55.66-6.92 2.43-9.77 2.82-2.52 6.21-5.53 10.4-3.69 2.89 1 7.12 2 7.71 5.8" fill="#ffcb05"/><path d="m502.37 717.44c1 1.14 1.74 2.51 1.11 4.09-2.63 3.86-7.72 3.84-12.25 3.32-1-.59-2.34-1.21-2.81-2.3-.43-1.91 1-3.16 2.13-4.44 3.33-2 8.2-3 11.82-.67" fill="#ffcb05"/><path d="m485.29 721a5.42 5.42 0 0 1 -.52 4.53 18.9 18.9 0 0 1 -14.9 2.63 6.62 6.62 0 0 1 -2.42-4.43c1.57-4.19 6.68-4.43 10.47-5 2.68-.11 5.89.07 7.37 2.3" fill="#ffcb05"/><path d="m153.54 706.48 3.5 13.87a9.65 9.65 0 0 1 -.35 6.14c-2.34 3.35-6.65 3.9-10.92 3.66-3.2-.44-6-2.48-6.65-5.74-.76-5.39-4.51-10.43-2.3-16.2 1.48-2.32 3.31-6.23 6.78-6a12.44 12.44 0 0 1 9.94 4.31" fill="#ffcb05"/><path d="m465 725.23a2.92 2.92 0 0 1 -.7 2.91c-3.11 2.77-7.67 3.05-11.64 2-1.58-.63-1.47-2.49-1.92-3.86.71-2.91 4.2-3.24 6.67-4.18 2.94.17 6.43-.17 7.59 3.11" fill="#ffcb05"/><path d="m132.38 710.91c1.05 5.15 4 9.87 3.94 15.76-.64 1.56-1 3.42-2.92 4.12-1.11.74-2.46.67-3.53.87-4-.23-9.14.29-11-3.84-1.86-4.93-5.09-9.4-4-15.22a10.41 10.41 0 0 1 6.56-6.86 15.67 15.67 0 0 1 10.95 5.17" fill="#ffcb05"/><path d="m448.2 727.76a4.13 4.13 0 0 1 -1.33 4.49c-3.35 2.21-8.72 2.45-12.65.89a5.67 5.67 0 0 1 -2-2.26c-.69-1.92 1-3.17 2.1-3.9 3.87-1.92 10.94-3.94 13.9.78" fill="#ffcb05"/><path d="m105.41 709.38c1.82.9 3.91 1.83 5.15 3.51 1.62 4.65 1.84 10 4.56 14.19-.08 1.33-.44 2.92-1.54 3.65a8.84 8.84 0 0 1 -8.58-.73c-5.1-4.57-6.88-10.83-7-17.26a8.27 8.27 0 0 1 2.19-5.51c1.87.1 3.4 1.54 5.24 2.17" fill="#ffcb05"/><path d="m428.56 729.06a5 5 0 0 1 .82 4.33c-3.72 4.08-9.62 4.28-15.2 3.43-1.3-.61-2.35-1.21-2.8-2.57a5.27 5.27 0 0 1 1.56-3.93 19.22 19.22 0 0 1 14.06-2.15z" fill="#ffcb05"/><path d="m94.55 711.71c.28 4.57 2.18 8.69 3.28 13a5.92 5.92 0 0 1 -2.56 2.54c-5.88-.33-8.19-6.89-9.79-11.53a6.24 6.24 0 0 1 1.08-4.72c1.92-1 4.32-.82 6.73-.69z" fill="#ffcb05"/><path d="m409 734.37c.2 1.08.41 2.17-.44 2.93-3.63 2.74-8.49 3.27-13.26 2.46-.77-.58-2.12-.66-2.32-2a3 3 0 0 1 .72-2.91c3.67-3.27 9-3.76 13.81-2.69z" fill="#ffcb05"/><path d="m208.91 727.3 3.14 10.63c.31 4-3.84 6.22-6.38 8.48-2.78 1.72-6.78 1.49-9.65 0-5.22-2.45-5.38-8.88-7-13.53a6.89 6.89 0 0 1 1.38-5.56c5-2.66 11.3-5.25 17-2z" fill="#ffcb05"/><path d="m390 738.39a2.4 2.4 0 0 1 -.14 2.67c-4.2 3.24-10.7 4.21-15.39 2.07a4.09 4.09 0 0 1 -1.14-3.54c1.84-4.19 7.14-3.09 10.95-4.21 2.14.12 5.08.3 5.72 3" fill="#ffcb05"/><path d="m370.26 741c.22.8.7 1.92.1 3-4 3.53-9.87 4-15.16 2.63-1.28-.88-1.48-2.23-1.67-3.58 1.52-3.13 5.54-3.17 8.54-4.07 2.7-.38 6.47-.7 8.19 2.07" fill="#ffcb05"/><path d="m185.33 731.86c.83 4.35 4.57 9.1 1.11 13.47a11.6 11.6 0 0 1 -10.62 2.88c-3.16-1-6.57-2.25-8-5.55-.88-3.53-4.66-7.5-1.25-11.06 5-3.73 14.49-5.07 18.75.26" fill="#ffcb05"/><path d="m161.58 734.8c1.41 3.56 4.13 7.47 2 11.1-2.3 2.55-6.17 4.73-10.12 3.71-5.6-.59-6.88-6.55-8.25-10.65-.4-2.43.76-4 2.71-5.2 4.34-.83 10.36-3.16 13.61 1" fill="#ffcb05"/><path d="m102 732.49c1.4 3.56 3.36 6.89 4.23 10.42a5 5 0 0 1 -5.12.52c-2.86-1.51-6.22-3.84-7.1-7.11a8.34 8.34 0 0 1 0-5.09c1.65-.71 3.69-3.55 5.71-1.54z" fill="#ffcb05"/><path d="m350.51 744.18c.19 1.36 1.47 2.5.59 3.79-3.7 3.8-9.05 3.77-13.91 4.3-2.14-.13-4.23-1-4.93-3-.43-1.63.41-2.39 1.28-3.41 3.61-2.2 8.14-1.94 12.21-2.79 1.9-.16 3.18.72 4.76 1.07" fill="#ffcb05"/><path d="m140.78 737.64c1.16 3.28 3.39 6.36 3.17 10.09-3.12 3.31-7.7 3.59-11.94 2.81-5.6-.59-7.38-6.85-9-11.23a3.35 3.35 0 0 1 1.27-3.42c4.93-2.12 12.78-3.28 16.51 1.75" fill="#ffcb05"/><path d="m119.62 737.51c.6 3.51 5.18 7.79 1.26 10.78-2.81 2.25-5.31-.84-7.93-1.79-2.81-2.56-4.22-6.12-5.9-9.45-.46-1.35.4-2.38 1.78-3.1 3.78-.59 8.56.22 10.79 3.56" fill="#ffcb05"/><path d="m328.84 748.3c.73 1.39 1.45 2.78.83 4.35-4.23 3.78-10.43 4.22-16 2.83-1-1.12-2.24-2.8-1.61-4.64a16.43 16.43 0 0 1 16.76-2.54" fill="#ffcb05"/><path d="m308.8 752c.48 1.09 1.48 2.23.61 3.5-3.69 3.55-9.6 3.75-14.67 3.47a5.26 5.26 0 0 1 -3.25-4.21c1.57-3.92 6.68-4.17 10.45-4.76 2.68.16 5.38-.23 6.86 2" fill="#ffcb05"/><path d="m222.33 750.31c.39 2.68 2.94 5 1.42 8.11-3.48 4.63-9.62 4.28-15 4-3.41-1.27-5.12-4.31-6-7.57-.25-5.11 6-6.63 9.58-8.29 3.78-.59 8-.08 10 3.78" fill="#ffcb05"/><path d="m288.52 755.13c.75 1.12 1.47 2.5.86 3.8-3.1 2.77-7.68 3.05-11.93 2.53-1-.86-2.61-1.21-3.06-2.84-.43-1.9 1.5-2.87 2.63-3.61 3.76-.32 8.21-3.28 11.5.12" fill="#ffcb05"/><path d="m199.64 753.57c1.18 2.75 3.13 6.33.3 8.86-4.66 1.87-12.28 3.86-16.59-.4-1.45-2.78-4.5-5.89-2.71-9 3.4-3.3 8.07-5.17 13.08-3.81 2.33 1.46 5.27 1.64 5.92 4.35" fill="#ffcb05"/><path d="m176.57 753.86 3 8.21c.47 1.36-.65 2.11-1.49 2.59-4.1 1.39-10 1.31-13.9-.52-2.82-2-3.46-5.27-4.9-8-.65-2.72 1.57-4.2 3.53-5.69 2.48-1.2 6-1.8 8.6-.32 1.81 1.18 3.92 1.83 5.14 3.77" fill="#ffcb05"/><path d="m115.61 751.48c1 1.93.29 4.3.43 6.46-3 .89-5.82-1.14-8.12-3.14-2-2-3.24-4.48-2.56-6.85a4.65 4.65 0 0 1 2.46-.93c2.62 1.21 5.2 3 7.79 4.46" fill="#ffcb05"/><path d="m270.66 758.14c.5.83 1.21 2.2.62 3.24-3.41 3.56-9.88 4.27-14.88 2.64-.78-.57-1.81-1.17-2-2.25.82-5 6.69-4.72 10.5-5.57 2.14.12 4.54.25 5.78 1.94" fill="#ffcb05"/><path d="m156.34 756.2c.66 2.72 4 5.31 2.51 7.9-3.65 2.76-10.09 2.65-14 .29-2.86-1.5-4.28-4.8-5.74-7.56a3 3 0 0 1 .7-2.9c1.7-1.52 4-3.54 6.64-3.65 4 1 8.75 1.84 9.85 5.92" fill="#ffcb05"/><path d="m129.48 752.53c2.07 1.46 6.14.62 6.49 3.86.43 1.88 2.74 3.37 1.54 5.71-1.68 1.51-3.81 1.12-5.71 1.54-4.77-1.07-8.21-6.35-9.86-10.46.33-1.06.41-2.39 1.48-2.34 2.46-.92 3.94 1.3 6.06 1.69" fill="#ffcb05"/><path d="m251.35 763.2a3.2 3.2 0 0 1 -1 3.69c-5 2.68-11.72 3.62-17.23 1.44-1-.87-1-1.66-1.73-2.52.51-4.25 5.6-4.23 8.89-5.38 3.75-.06 9.15-.82 11.09 2.77" fill="#ffcb05"/><path d="m126.11 764.66a7.22 7.22 0 0 1 -6.21-3.83c-.72-1.38-.35-3.24 0-4.56 2.54 2.56 4.81 5.09 6.22 8.39" fill="#ffcb05"/><path d="m227.65 765.34c.74 1.11 1.46 2.49.06 3.48-4.64 1.61-10.12 3.71-15.1 1.83-.76-.86-1.77-2-1.17-3 2.86-3.32 7.15-3.07 11.19-3.65 1.87.11 3.74.21 5 1.36" fill="#ffcb05"/><path d="m208.11 769.58c-.46 3.46-5 2.94-7.46 3.87-4.28 0-10.5 1-12.68-3.14.68-2.63 4.16-2.43 6.34-3.11a20.58 20.58 0 0 1 10.74-.46 4.57 4.57 0 0 1 3.06 2.84" fill="#ffcb05"/><path d="m147.09 768.27c.47 1.09 2.29 2 1.4 3.55-3.57 1.41-7.76-.17-11.2-1.17-1.29-.87-3.14-1.25-3.58-2.88.38-2.11 2.76-1.45 3.89-2.45 4.07-.85 6 2.22 9.49 2.95" fill="#ffcb05"/><path d="m184.47 770.38a1.63 1.63 0 0 1 -.11 2.14c-3.62 2.47-8.92 1.37-13.2 1.13-1.31-.61-3.13-1.52-3-3.12 2.86-3.31 8-3.56 12.73-2.48 1 .86 2.89 1 3.61 2.33" fill="#ffcb05"/><path d="m164.12 770.3c.22.81 1 1.67.91 2.73a14 14 0 0 1 -10.41-.59c-.78-.57-2.09-.92-2.57-2 .94-2.35 3.35-2.49 5.51-2.63 2.38.41 4.78.8 6.56 2.51" fill="#ffcb05"/><path d="m268.26 583.36c.73 1.37.64 3 .82 4.6-2.39 4.15-7.73 3.84-12.06 4.66-1.86-.36-3.75.06-5-1.89-.18-1.34-1.13-3.54.3-5.07a20.7 20.7 0 0 1 14.68-2.92z" fill="#ffcb05"/><path d="m248.46 587.86c-.12 1.87 1.12 3.54-.31 5.07a18.87 18.87 0 0 1 -13.24 2.2c-1.57-.9-.91-3-1.09-4.62 3.17-3.84 8.33-5.16 13.64-4.06z" fill="#ffcb05"/><path d="m230.78 592.21c-.09 1.6.88 3.53-.27 4.8-2.06 3.1-5.77 2.35-8.51 3.54-2.42.13-5.38.49-6.34-1.7-.42-1.9-.56-4.05 1.38-5.28 3.62-2.48 8-3.83 12.46-2.51z" fill="#ffcb05"/><path d="m211.79 596.23c1 1.65.33 3.76-.29 5.33a21.08 21.08 0 0 1 -12.78 3c-1.57-.62-3.13-1.51-3.3-3.14a4.47 4.47 0 0 1 1.28-3.66 17.83 17.83 0 0 1 13.56-2.72z" fill="#ffcb05"/><path d="m192 601c-.1 1.85.58 4-.58 5.58-3.11 2.77-7.43 3.33-11.24 4.18-1.88.16-3.47-.19-4.47-1.32a6.71 6.71 0 0 1 -1.37-4.1c.72-3.44 4.78-4 7.54-5.47 3.23-.34 7.89-2.22 10.12 1.13" fill="#ffcb05"/><path d="m169.92 606.7a7.41 7.41 0 0 1 -1.4 5.82c-5.06 4.26-11.55 5.5-18.54 5.64a2.61 2.61 0 0 1 -1.75-2.24c-.4-2.44 1.3-3.95 2.73-5.47a40.3 40.3 0 0 1 14.75-5.06 7.29 7.29 0 0 1 4.21 1.31" fill="#ffcb05"/><path d="m193.32 614.72c.5 5.39 4.32 13.65-2.31 17-1.08.21-1.67 1.23-2.5 1.73l-4.14 1.91c-3.51.6-6.35-1.17-8.34-4a43.26 43.26 0 0 1 -1.47-11.87c2.19-5.77 8.17-7 13.8-7a5.42 5.42 0 0 1 5 2.15" fill="#ffcb05"/><path d="m143.42 615.64c.48 1.1.91 3-.22 4-4.77 3.74-10.46 4.76-16.17 6.31-1-.32-2.42.14-2.88-1.24a6.63 6.63 0 0 1 1.35-5c5-3.19 10.54-6.09 16.65-5.21z" fill="#ffcb05"/><path d="m170.25 619.85a21.91 21.91 0 0 1 1.61 9.46c-.38 6.67-7 10.58-12.53 13a11.21 11.21 0 0 1 -9-2.38c-3-3.65-2.19-8.7-2.47-13.27 1.94-5.78 8.94-6.46 13.86-8.06 2.68-.1 6.18-.18 8.5 1.3" fill="#ffcb05"/><path d="m121 624.55a10 10 0 0 1 -.28 4.8c-3.07 2.23-7.08 2-10.14 4a5.38 5.38 0 0 1 -3.53.87 3 3 0 0 1 -.65-3c2.41-4.42 7.05-6 10.9-7.69 1.34.08 3.53-.87 3.7 1" fill="#ffcb05"/><path d="m144.28 628.82c1.55 5.71.6 13.16-4.44 16.88a12 12 0 0 1 -9.05 3.51c-2.65-.41-5.82-1.13-7-3.61-.87-3.8-.63-7.8-.67-11.82 2.43-5 7.87-6.52 12.74-7.32 3.21.18 6.7-.15 8.44 2.36" fill="#ffcb05"/><path d="m120.05 635.48c.49 5.65 2.44 13.8-3.66 17.46a12.93 12.93 0 0 1 -10.49.49c-3.32-2.87-.62-7.81-.15-11.26 1.33-4.75 6.58-7.4 10.89-8 1.32.34 2.38.4 3.41 1.27" fill="#ffcb05"/><path d="m104.16 637c-.17 2.93-1.91 5.25-3.13 7.85a7.47 7.47 0 0 1 -5.91.21 3.3 3.3 0 0 1 -.32-3.78 10 10 0 0 1 6.74-5.5c1.34.08 2.13.38 2.62 1.22" fill="#ffcb05"/><path d="m695.64 517.91c-.75 2 1.28 6.46 1.92 9.45a4.87 4.87 0 0 1 -2.7.38c-1.15-3.54-1.17-6.51-2.59-9.79a33 33 0 0 0 3.37 0" fill="#b61d22"/><path d="m677.63 519.53 2.37 11.12c-.94 2.35-.31 5.34-.72 8a9.73 9.73 0 0 0 -3.76 9.43c1.07 4.88 1.84 10 2.63 15.15-1 3.69-.46 8-1.49 12-2.28-2.26-6.27-2.75-9-1.84-.78-.31-.73-1.12-1.22-2 3.52-.6 7.12-2.54 8.64-5.93 1.18-6.64-1.41-13-2.95-18.92-2.75-3.38-6.9-5.75-11.26-4.65a13.58 13.58 0 0 0 -5.46 6.64 9.55 9.55 0 0 1 -2-3.32c-.23-.54-1.27-1.14-1-1.66 2.44-.4 5.46-1.83 6.68-4.45a18 18 0 0 0 -1.52-10.16c.83 0 1 .12 2.21.06.57 4.07 1.07 7.53 4.41 9.86 4.23 1 9.58 1.35 12.46-2.24 2.74-5.74.42-11.69-1.7-16.9 1.36-1.53 1.1-1.71 2.21-3.26z" fill="#b61d22"/><path d="m555.86 615.29 3.42 1 .64 2.72c-.27.25-.82.5-1.07.21-1.83-.9-4.47-1.6-6.15-.35-1.63.44-.72 3.17-2.56 2.53-.52-.29-.75-.84-1.52-1.43.62-1.57 2.78-2 3.16-3.83l.2-3.47 2.06-3.37a14.16 14.16 0 0 0 1.82 6" fill="#b61d22"/><path d="m575.09 574.93c.69 1.91-1.69 1.51-2.3 2.81a10.79 10.79 0 0 0 -4 9.69 43.88 43.88 0 0 1 1 5.67c.26.31.79.32.76.85-.3.53-1.17 1.81-1.63.44-1-.6-1.76-2.24-3.35-2.33a5.88 5.88 0 0 1 -2.16.15l10.13-17.9c.08-1.61 1.89-.17 1.57.62" fill="#b61d22"/><path d="m915.48 633.65c-.54.09-1.35 0-1.63-1.8-.2-1.25.17-2.16.93-2.29.94-.14 1.46.73 1.62 1.79.29 1.84-.5 2.24-.92 2.3" fill="#ffcb05"/><path d="m925.1 626c.81 4.61 2.07 10.83-1.11 14.95a10.31 10.31 0 0 1 -9.73 1.31c-5.22-2.43-3.28-8.21-4.37-12.55 1-3.71 3.89-7.29 8-8.13 3.22-.08 6.35 1.42 7.25 4.42" fill="#ffcb05"/><path d="m906.3 626.79c2.21 3.61 1.41 8.4 1.69 12.69a6.4 6.4 0 0 1 -4.34 5.65 9.65 9.65 0 0 1 -8.57-.22c-2.35-.94-1.65-3.84-2.09-5.74-.06-3.49-2.22-7.9.37-11.24 1.2-2.06 3.94-3.24 6.13-3.93 2.69-.11 5.06.56 6.81 2.79" fill="#ffcb05"/><path d="m942.24 456.33c.7 1.92 2.21 3.61 1.83 5.74-1.78 3.11-5.74 1.81-8.68 1.64-4-.49-7-4.41-7.85-7.94-.18-1.36.91-2.09 1.76-2.58 4.37-1.62 10.48-.75 12.94 3.14" fill="#ffcb05"/><path d="m924.6 455.61c1.2 2.47 2.39 4.95.92 7.55-2.86 3-8.17 2.21-11.87 1.2-3.14-1.26-5.1-4.58-5.73-7.57a3.8 3.8 0 0 1 2.34-3.61 16 16 0 0 1 14.34 2.43" fill="#ffcb05"/><path d="m964.79 460.56a4.49 4.49 0 0 1 .05 3.75c-3.43-1-7.19-.68-10.71-.33a5.31 5.31 0 0 1 -5.82-1.14c-.4-2.44-2.73-3.91-1.49-6.79 2.56-2.53 7.31-1.46 10.49-.74a10.63 10.63 0 0 1 7.48 5.25" fill="#ffcb05"/><path d="m905.67 458.55c.45 1.62 1.41 3.55.75 5.66-2.56 2.53-6.58 2.57-10.31 2.09a11.16 11.16 0 0 1 -5.75-2.47c-.65-2.44-2.68-4.7-1.74-7.05 2.86-3.06 7.4-2.8 11.38-2 2.09.66 4.73 1.61 5.67 3.81" fill="#ffcb05"/><path d="m885.27 459c1.23 2.22 3.24 4.47 2 7.35-2.85 3.05-7.38 2.53-11.36 1.77-1.33-.09-2.07-1.19-2.82-2-.69-1.91-1.65-4.11-.73-6.2a13.08 13.08 0 0 1 12.91-.88" fill="#ffcb05"/><path d="m869 462.62c.13 2.43 1.88 4.67.41 7-3.9 2.73-10.14 4-14.81 1.3a8.13 8.13 0 0 1 -1.75-7.06c4.22-3.51 11.54-5 16.15-1.23" fill="#ffcb05"/><path d="m967 469.52c3.26 3.94 4 9.34 5.89 14-.44 3.19-3.54 6-6.54 6.86a13.7 13.7 0 0 1 -10.46-4.62l-3.8-13.33a4.46 4.46 0 0 1 1.53-3.4c3.63-2.47 9.77-2.12 13.38.49" fill="#ffcb05"/><path d="m947.86 470.58a60.44 60.44 0 0 1 4.51 15 8.68 8.68 0 0 1 -4.41 7c-4.28 0-8.5-1.28-10.44-5.14l-4.24-15c-.48-.82-.16-1.88-.1-2.69 2.59-3.06 6.87-3.09 10.85-2.32a5.62 5.62 0 0 1 3.83 3.16" fill="#ffcb05"/><path d="m989.49 478.3a12.6 12.6 0 0 1 .37 7.78c-.9 1.83-2.35 3.63-4.24 4.05-3.52.61-6.35-1.43-8.65-3.43-1.63-4.38-2.72-8.73-4.37-12.84-.47-1.1-1.5-2-.61-3.24 1.45-2.07 4.91-1.6 7.55-1.18 4.22 1.57 7.52 5 10 8.86" fill="#ffcb05"/><path d="m932.86 480.18c1.14 3.28 2.49 7.91.42 11.27-2 2.3-5 2.4-7.87 2-8.21-1.82-6.88-11.11-9.24-16.87-.42-1.9-1.89-4.39-.18-6.17 2.56-2.54 7.11-2.54 10.82-1.8 4.43 2.13 4.13 7.47 6.05 11.6" fill="#ffcb05"/><path d="m910.83 471.69c3.2 4.74 3.41 10.66 5 16.09a9.24 9.24 0 0 1 -3.86 6.75c-4.4 1.89-9.66 0-12.71-2.87-.93-2.46-1.32-4.89-2-7.35a49.61 49.61 0 0 1 -2.86-10.87c3.5-5.15 11.78-4.7 16.45-1.75" fill="#ffcb05"/><path d="m890.9 473.24c2.86 6.33 4.08 13.09 5.31 19.86-.39 2.11-2.35 3.61-3.76 4.87-2.5 1.47-6 1-8.29-.46-4.1-3.46-3.24-8.77-5.14-13.15l-2.46-8.72c.76-4 5.33-4.24 8.57-4.6a9.17 9.17 0 0 1 5.77 2.2" fill="#ffcb05"/><path d="m872.79 476c4 6.11 4.59 13.65 6.33 20.7a6.57 6.57 0 0 1 -2.92 4.13c-3.56 1.41-7.9 2.24-11.55.68-3.83-3.43-3.25-9-4.86-13.66-.35-3.24-2.86-6.33-1-9.71 3.16-3.84 9.92-4.79 14-2.14" fill="#ffcb05"/><path d="m1003.36 503.46c.61 3.25.38 7.25-1.89 9.54a7.44 7.44 0 0 1 -8.38 1.12 137.33 137.33 0 0 0 -4.59-18.2 7.09 7.09 0 0 1 4.08-5.65c5.81 1.4 9.48 7.49 10.78 13.19" fill="#ffcb05"/><path d="m986.9 500.66c.52 4.85 3.71 10.11 0 14.46-2.33 3.08-6.6 2.84-10 2.1-2.11-.64-3-3.11-3.19-5.27-1-5.67-2.85-11.13-3.86-16.82a7.41 7.41 0 0 1 4.35-5.65 16.53 16.53 0 0 1 12.76 11.18" fill="#ffcb05"/><path d="m968.21 499.32c.73 5.94 5.39 13.7-.28 19-2.52 2-6.52 1.77-9.41.54-1.8-1.17-2-3.06-2.67-4.71-1.28-6-1.73-12.15-4.08-17.91a6.07 6.07 0 0 1 3.51-5.15c5.32.56 11.39 2.25 12.93 8.22" fill="#ffcb05"/><path d="m949.71 499.62c2.13 4.66 2.35 10.31 3.39 15.72.33 3.51-2 6-4.72 7.51-3 .63-6.44.16-8.73-1.85-2.22-3.33-1.47-7.31-2.61-10.86-1-5.13-3.64-11.45.39-16 4.61-1.08 9.56 1.34 12.28 5.52" fill="#ffcb05"/><path d="m932.15 501.84a172.59 172.59 0 0 1 3.33 17.06c-.69 2.64-1.93 5.52-4.67 6.7-3 .9-7.54.63-10.1-1.65-2.29-2-2.1-5.21-2.76-7.92-.83-4.33-2.19-8.69-3-13.3.72-3.17 2-6.59 5.27-7.74 4.77.81 10.07 1.91 11.93 6.85" fill="#ffcb05"/><path d="m911.75 502.55c1.8 6 4.14 12 3.5 18.68-1 2.89-2 6-5 6.95-3.24.36-7.27.66-10.12-1.11-.77-.58-1-1.93-1.71-2.77-1-6.76-2.46-13.27-4-19.78-.35-3.51 2.45-5.48 4.7-7.24 4.85-.53 10.13.84 12.56 5.27" fill="#ffcb05"/><path d="m1007.34 523c1.81 5.72 4.06 13.35.79 19.06-2 2.83-5.55 3.17-8.53 3.8a2.53 2.53 0 0 1 -1.79-1.44c-.09-7.78-2.11-14.85-3-22.14a4 4 0 0 1 2.32-3.09 7.85 7.85 0 0 1 10.24 3.81" fill="#ffcb05"/><path d="m992 524.51a103.27 103.27 0 0 1 2.42 18.62 15.12 15.12 0 0 1 -7.38 7.35c-1.35.19-3 .36-4-.48-5.43-3.54-3.16-10.37-5-15.56l-1.65-8.67c-.12-2.68 2.35-3.89 4.55-4.82 3.59-1.68 10-1.58 11.06 3.56" fill="#ffcb05"/><path d="m971.14 523.33c3.24 4.21 3.18 9.83 4.24 15a13.06 13.06 0 0 1 -4.51 13.14c-1.66 1-3.12 3-5.22 2.39-4.43-2.13-4.45-6.69-5-10.74.11-6.69-6.06-15.88 1.94-20 2.72-.65 6.25-1.53 8.57.21" fill="#ffcb05"/><path d="m955 528.85a103.34 103.34 0 0 1 3 18.15c-1 3.69-3.64 7.55-7.74 8.93-2.71.38-4.77-1.08-6.26-3-1.42-3.29-.93-7.28-1.52-11.06-.07-3.5-1.52-6.25-1.85-9.75-.13-2.43 1.84-4.18 3.77-5.14 3-1.43 9-2.18 10.62 1.94" fill="#ffcb05"/><path d="m936.67 530.75a61.13 61.13 0 0 1 3.43 20c-.47 3.45-4.11 6.2-6.86 7.38-3.47-.2-7.48-.43-9.16-3.74-.66-7.27-3.51-13.59-3.64-20.83 1.54-3.67 6.16-4.74 9.93-5.06 2.41.14 4.79.54 6.3 2.23" fill="#ffcb05"/><path d="m917.18 534.2a89.68 89.68 0 0 1 3.66 20.56c-.43 2.93-2.71 5.21-5 7-3.8.84-8 .07-10.83-2.76-2.26-2.55-1-6-1.91-9-.54-4.58-1.89-9.22-2.42-13.8 1.5-2.86 5.07-4.26 8-4.9 3.21.18 7-.14 8.41 2.89" fill="#ffcb05"/><path d="m1012.4 551.66c1.27 6 1.91 13.5-1.86 18.64a10.25 10.25 0 0 1 -4.71 2.68 2.64 2.64 0 0 1 -2.05-1.72c-1.2-2.49 0-5.36-.33-8.33.56-5-3.62-11.72 1.94-15.16a4.65 4.65 0 0 1 3.77-.32 10.44 10.44 0 0 1 3.24 4.21" fill="#ffcb05"/><path d="m1000.19 554.17c.76 5.67.68 11.57.91 17.2a6.89 6.89 0 0 1 -3.76 4.87c-2.45.42-5.48 2.11-7.78.11-1.23-2-.83-4.34-1.51-6.52.56-5.06-2.36-10.32.32-15 1.73-2.31 3.49-4.9 6.5-5.8 2.94-.09 4.12 2.91 5.32 5.12" fill="#ffcb05"/><path d="m983.28 554.82c2.38 5.23 1.75 11.62 2 17.53.64 3-1.63 5.26-3.86 6.75-2.5 1.46-5.25 2.91-8.41 1.66-3.34-2.6-1.17-7.56-2.57-11.4l-1.24-11.05c1.23-2.88 4.31-5.38 6.84-7.11 2.72-.92 5.53 1.65 7.29 3.62" fill="#ffcb05"/><path d="m966.11 559.75a82.11 82.11 0 0 1 1.83 19.92c-.75 3.71-4.83 4.55-7.53 5.2-1.88-.11-4 0-5.57-1.13-2.68-4.74-1.84-10.54-3.13-15.74-.64-3-.92-7.55 1.9-9.79a12.87 12.87 0 0 1 5.06-4.27 9.26 9.26 0 0 1 7.44 5.78" fill="#ffcb05"/><path d="m949.44 570.31c.22 5.38 3.51 13.6-2.05 17.3-2.75 1.19-6.59 2.58-9.14.29-2.48-3.37-1.69-7.87-2.53-11.93.26-4.82-2.7-9-.3-13.68 1.44-1.8 3.21-4.64 5.94-5.56 7.49.16 6.48 8.67 8.08 13.58" fill="#ffcb05"/><path d="m929.5 562.75c3.94 5.86 3.52 13.6 4.18 20.87-.44 2.92-1.41 5.81-4.42 7s-6.83 2.28-10 .77c-4.58-4.28-2.58-11.12-4.42-16.58-1.43-3.29.1-6.43 1.08-9.59a20.26 20.26 0 0 1 7-5.5c2.69-.11 4.75 1.35 6.53 3" fill="#ffcb05"/><path d="m909 565.34c4.2 6.4 3.48 14.39 4.4 21.68-.42 2.65-.87 5.84-3.61 7-3 .9-6 1.8-9.45 1.06-2.34-1.21-2.7-4.17-3.38-6.35l-1.89-14a7.93 7.93 0 0 1 .93-6.91c2.55-2.54 5.2-6.68 9.14-5.11a10.85 10.85 0 0 1 3.86 2.63" fill="#ffcb05"/><path d="m1012.12 575.48c2.24 3.07 1.74 7.06 2.08 10.57-.75 4-2.34 8.16-6.2 10.09a4 4 0 0 1 -3.48.07l-.5-.84c1.15-6.09-.34-12.87 1.6-18.66 1.71-1.76 4.76-3.47 6.5-1.23" fill="#ffcb05"/><path d="m1001.63 580.78c1.28 6 .1 12.59-1 18.43-1.78 3.1-4.12 6.46-7.87 6.51-1.34-.08-2.33-1.47-2.82-2.3-.69-1.91.23-4-.2-6.17.83-5-2.08-10.31.59-15 3.08-2.24 8-4.1 11.34-1.5" fill="#ffcb05"/><path d="m985.4 583.34c1.92 4.13 1.62 9.47 1.61 14.29a10.86 10.86 0 0 1 -2.92 8.94c-2 2-5 3.74-8.21 3a6 6 0 0 1 -2.54-2.56c-.69-1.92.26-4.54-.16-6.44a72.69 72.69 0 0 1 -.59-13.16c1.54-3.66 5.63-4.76 9.15-5.37a4.46 4.46 0 0 1 3.66 1.28" fill="#ffcb05"/><path d="m969.29 588.58c1 5.69 1.72 12.42.31 18.23-2.61 3.61-6.86 7.65-11.62 6.58-3.92-1.83-1.23-6.76-2.11-10-.62-3.25-.14-7-.78-10 .21-3.73 4.06-5.39 7.06-6.3 2.18-.67 5.65-.48 7.14 1.48" fill="#ffcb05"/><path d="m952 592.15.71 1.65c.21 5.64 1 11 .11 16.89-1.3 3.94-5.66 5.3-8.95 6.45-1.86-.11-3.7-.74-4.4-2.4-.75-5.93.44-12.55-.85-18.26 1-3.69 5.41-5.58 9.17-5.9 1.62.09 3.21.18 4.21 1.57" fill="#ffcb05"/><path d="m934.86 595.74a32.65 32.65 0 0 1 .26 19c-2.87 3.31-7.36 6.81-12.35 5.18-7.09-2.81-3.09-11.69-4.65-17.13-.66-2.72 1.06-4.5 2.48-6 3.62-2.48 8.79-3.8 13.23-1.94z" fill="#ffcb05"/><path d="m1007.91 602.3c0 4.82-1.61 9.81-6.28 11.69a8.23 8.23 0 0 1 -5.1 0c-1.25-1.41 0-3.76.05-5.63 3.06-2 6.17-4.74 7.17-8.16a2.39 2.39 0 0 1 1.65-.73 3.85 3.85 0 0 1 2.51 2.84" fill="#ffcb05"/><path d="m914.31 599.13c1.61 4.38 1.59 9.73 1.83 14.83.1 3-.85 5.57-3.62 7s-6.32 2.6-9.15.83c-5.13-4-3.36-11.71-4.89-17.69-.13-2.42 1.84-4.18 4.06-5.4 3.26-.88 6.56-2.3 10.25-1.28z" fill="#ffcb05"/><path d="m991.67 609.94c1.73 2.77 1.21 7 0 9.91-2.09 3.63-6 7.42-10.61 7.44-3.94-1.57-.94-7-2.08-10.57.49-4 4.42-7 8.23-8.1 1.65-.72 4-.57 4.48 1.32" fill="#ffcb05"/><path d="m974.88 613c1.79 1.71 1.09 4.35 1.52 6.51-.48 3.46.88 7.83-2.46 10.05-3.61 2.2-7.76 4.38-12.2 2.51l-.73-1.37c.58-5.32-2.53-11.93 3-15.38 3.08-2.23 7.27-5.21 10.85-2.32" fill="#ffcb05"/><path d="m1000.44 620.62c.1 3.23-2.19 5.78-5 7.22-.84.23-1.67 1-2.72.38-1-.86-.94-2.19-.6-3.52a26.47 26.47 0 0 0 3.86-6.47c1.73-2.31 4.24.77 4.41 2.39" fill="#ffcb05"/><path d="m957 617.35 1 1.13c-.3 5.33 2.66 14.34-4.16 16.63a13.53 13.53 0 0 1 -6.73.69l-1.5-2c0-5.09-2.77-12.47 3-15.63 2.26-2 6.09-3.4 8.36-.86" fill="#ffcb05"/><path d="m940.16 620.42c3 3.91 1.86 9.74 1.83 14.83-.43 2.92-3.4 3.29-5.58 4.23-2.7.12-5.64-.05-7.37-2.55.26-4.8-2.11-10 .82-14.42 2.78-2 6.74-5.51 10.3-2.09" fill="#ffcb05"/><path d="m989.48 629.64a8.75 8.75 0 0 1 -5 7.22c-1.92.7-4.12 1.91-6.21 1 .13-2.4-.5-5.39 1.47-6.89a23.13 23.13 0 0 0 8.48-3.26 2 2 0 0 1 1.23 1.94" fill="#ffcb05"/><path d="m889.11 632c.25 5.1 3.1 11.69-1.4 15.45a12.62 12.62 0 0 1 -12.35.38c-3-3.93-2.18-9-3.26-13.59a5.54 5.54 0 0 1 1.6-4.46 11.45 11.45 0 0 1 10.3-2.37c2.11.66 3.86 2.9 5.09 4.57" fill="#ffcb05"/><path d="m975.72 635.84a8.1 8.1 0 0 1 -3.57 6.48c-3.29 1.16-8 3.57-10.74.19a9.68 9.68 0 0 1 1.08-4.77 14.24 14.24 0 0 1 12.51-3.29z" fill="#ffcb05"/><path d="m958.67 638.88a8.93 8.93 0 0 1 -1.4 5.81c-2.82 2.24-6.18 5-10.4 3.7-2.1-.66-1.94-3.33-2.11-5.21 2.66-4.41 7.84-6 12.89-5.16z" fill="#ffcb05"/><path d="m942.31 643.84a7.28 7.28 0 0 1 -1.37 5.28c-2.3 2.81-6.09 3.41-9.52 2.4-.77-.57-1.56-.89-1.51-1.68a4 4 0 0 1 1.34-4.76 12.8 12.8 0 0 1 10.11-3.44z" fill="#ffcb05"/><path d="m927.16 646.46c.15 1.89.82 4.33-.61 5.85-3.37 2.77-8.54 4.08-12.71 2.23-1.83-.9-.6-3.78-.77-5.4a13.82 13.82 0 0 1 12.84-4.09z" fill="#ffcb05"/><path d="m909.32 648.93c1.28 1.14 1.2 2.75 1.37 4.37-.48 3.72-4.55 4.55-7.54 5.45-2.44.41-5.4.51-7.43-1.48-1.51-1.7-.31-4 .34-5.88 2.56-2.53 6.07-3.13 9.57-3.46a8.32 8.32 0 0 1 3.69 1" fill="#ffcb05"/><path d="m891.67 653c1 1.4.34 3.5 0 5.09-2.31 3.08-6.08 3.41-9.57 3.47-1.85-.37-4.51-.78-4.91-3.22.09-1.62.18-3.21 1.58-4.2 3.35-2.48 9.06-3.78 12.92-1.14" fill="#ffcb05"/><path d="m873.56 656c.73 1.12.34 3.24 0 4.56-2.89 3.59-8.3 4.35-13.06 3.28a3.27 3.27 0 0 1 -1.76-2 6.53 6.53 0 0 1 4.09-5.93c3.53-.87 7.67-3.05 10.72.06" fill="#ffcb05"/></g></svg>