<svg xmlns="http://www.w3.org/2000/svg" viewBox="0 0 900 540" role="img" aria-labelledby="title desc">
  <title id="title">Soil sampling illustration</title>
  <desc id="desc">A soil probe, sample bag, and field rows in a clean agricultural illustration.</desc>
  <rect width="900" height="540" fill="#f3efe3"/>
  <path d="M0 352c118-54 238-54 360 0s243 54 365 0c63-28 121-39 175-33v221H0V352z" fill="#7a5a32"/>
  <path d="M0 392c133-43 265-43 398 0s266 43 399 0c36-12 71-20 103-25v173H0V392z" fill="#9b7243"/>
  <path d="M76 355c97 24 193 24 290 0M534 355c97 24 193 24 290 0M34 435c124 28 248 28 372 0M497 435c124 28 248 28 372 0" fill="none" stroke="#c79854" stroke-width="8" stroke-linecap="round"/>
  <rect x="382" y="72" width="34" height="333" rx="17" fill="#cfd5cf"/>
  <rect x="390" y="89" width="18" height="300" rx="9" fill="#8e9a91"/>
  <path d="M337 74h126c13 0 23 10 23 23s-10 23-23 23H337c-13 0-23-10-23-23s10-23 23-23z" fill="#2f5d38"/>
  <path d="M402 392c-45 0-82 20-82 44s37 44 82 44 82-20 82-44-37-44-82-44z" fill="#5c3f25"/>
  <path d="M602 265h134l26 201H574l28-201z" fill="#fff7dc" stroke="#d7b56d" stroke-width="8"/>
  <path d="M604 265h132l-12-54H616l-12 54z" fill="#f2c84b"/>
  <text x="668" y="323" text-anchor="middle" font-family="Arial, sans-serif" font-size="32" font-weight="700" fill="#2f5d38">SOIL</text>
  <text x="668" y="362" text-anchor="middle" font-family="Arial, sans-serif" font-size="28" font-weight="700" fill="#2f5d38">SAMPLE</text>
  <circle cx="176" cy="146" r="54" fill="#f2c84b"/>
  <path d="M126 223c67-49 144-49 231 0 60 34 128 34 202 0 72-33 145-33 218 0" fill="none" stroke="#2f5d38" stroke-width="18" stroke-linecap="round"/>
</svg>
